<svg xmlns="http://www.w3.org/2000/svg" xmlns:xlink="http://www.w3.org/1999/xlink" width="25.001" height="25" viewBox="0 0 25.001 25">
  <defs>
    <rect id="rect-1" width="25.001" height="25" x="0" y="0"/>
    <mask id="mask-2" maskContentUnits="userSpaceOnUse" maskUnits="userSpaceOnUse">
      <rect width="25.001" height="25" x="0" y="0" fill="black"/>
      <use fill="white" xlink:href="#rect-1"/>
    </mask>
  </defs>
  <g>
    <use fill="none" xlink:href="#rect-1"/>
    <g mask="url(#mask-2)">
      <path fill="rgb(255,174,59)" fill-rule="evenodd" d="M21.42919922 1.78515625h-.8930664V.91699219C20.54052733.43432617 20.16748046.03173829 19.68603515 0c-.24414063-.01171875-.48242188.0769043-.6591797.24560547C18.85009767.4140625 18.75.64770507 18.75.89208984v.89306641H6.25V.91699219C6.25488281.43432617 5.88183594.03173829 5.39990234 0c-.24365234-.01171875-.48193359.0769043-.6586914.24511719-.17675782.16845703-.27685547.40185547-.27734375.6459961v.89282226h-.89208985c-.94726562 0-1.85546875.37646484-2.52539062 1.04638672C.37646484 3.50024414 0 4.4086914 0 5.35595703v16.07202149C0 23.4008789 1.5991211 25 3.57177734 25h17.85742188c1.97265625 0 3.57177734-1.5991211 3.57177734-3.57202148V5.35595703c-.00048828-1.97216797-1.59960937-3.57080078-3.57177734-3.57080078zm1.78515625 4.90795898v-.8930664l.00097656-.4440918c-.00292969-.98510742-.80078125-1.78320312-1.78613281-1.78588867H3.57226562c-.98535156.00268555-1.78320312.80078125-1.7861328 1.78588867v1.3371582c0 .24682618.2001953.44702149.44677734.44702149h20.53417968c.24707032 0 .44726563-.20019531.44726563-.44702149zM14.73193359 12.5c-.73974609 0-1.33984375-.59985352-1.33984375-1.33984375 0-.74023438.60009766-1.3400879 1.33984375-1.3400879.74023438 0 1.34033203.59985353 1.34033203 1.3400879-.00048828.73925781-.60009765 1.3383789-1.34033203 1.33984375zm4.4638672 0c-.7397461 0-1.33984376-.59985352-1.33984376-1.33984375 0-.74023438.60009766-1.3400879 1.33984375-1.3400879.74023438 0 1.34033203.59985353 1.34033203 1.3400879-.00048828.73925781-.60009765 1.3383789-1.34033203 1.33984375zm-14.7319336 3.12402344c0 .73999023.60009765 1.33984375 1.33984375 1.33984375.74023437 0 1.34033203-.59985352 1.34033203-1.33984375 0-.74023438-.60009766-1.3400879-1.34033203-1.3400879-.7397461 0-1.33984375.59985352-1.33984375 1.3400879zm4.46435547 0c0 .73999023.60009765 1.33984375 1.33984375 1.33984375.74023437 0 1.34033203-.59985352 1.34033203-1.33984375 0-.74023438-.60009766-1.3400879-1.34033203-1.3400879-.7397461 0-1.33984375.59985352-1.33984375 1.3400879zm4.46386718 0c0 .73999023.60009766 1.33984375 1.33984375 1.33984375.74072266-.00048828 1.34033203-.6003418 1.34033203-1.33984375 0-.74023438-.60009765-1.3400879-1.34033203-1.3400879-.73974609 0-1.33984375.59985352-1.33984375 1.3400879zm4.4638672 0c0 .73999023.60009765 1.33984375 1.33984374 1.33984375.74072266-.00048828 1.34033203-.6003418 1.34033203-1.33984375 0-.74023438-.60009765-1.3400879-1.34033203-1.3400879-.7397461 0-1.33984375.59985352-1.33984375 1.3400879zm-12.0522461 5.80395508c-.7397461 0-1.33984375-.59985352-1.33984375-1.33984375 0-.74023438.60009765-1.3400879 1.33984375-1.3400879.74023437 0 1.34033203.59985352 1.34033203 1.3400879 0 .73999023-.60009766 1.33984375-1.34033203 1.33984375zm4.46435547 0c-.7397461 0-1.33984375-.59985352-1.33984375-1.33984375 0-.74023438.60009765-1.3400879 1.33984375-1.3400879.74023437 0 1.34033203.59985352 1.34033203 1.3400879 0 .73999023-.60009766 1.33984375-1.34033203 1.33984375zm4.46386718 0c-.73974609 0-1.33984375-.59985352-1.33984375-1.33984375 0-.74023438.60009766-1.3400879 1.33984375-1.3400879.74023438 0 1.34033203.59985352 1.34033203 1.3400879 0 .73950195-.59960937 1.33935546-1.34033203 1.33984375z"/>
    </g>
  </g>
</svg>
