<svg xmlns="http://www.w3.org/2000/svg" width="25.001" height="25" viewBox="0 0 25.001 25">
  <path id="calendar" d="M23.679,4.036h-.893V3.168a.91.91,0,0,0-.85-.917A.893.893,0,0,0,21,3.143v.893H8.5V3.168a.91.91,0,0,0-.85-.917.893.893,0,0,0-.936.891v.893H5.822A3.572,3.572,0,0,0,2.25,7.607V23.679a3.572,3.572,0,0,0,3.572,3.572H23.679a3.572,3.572,0,0,0,3.572-3.572V7.607A3.572,3.572,0,0,0,23.679,4.036ZM8.054,23.679a1.34,1.34,0,1,1,1.34-1.34A1.34,1.34,0,0,1,8.054,23.679Zm0-4.464a1.34,1.34,0,1,1,1.34-1.34A1.34,1.34,0,0,1,8.054,19.215Zm4.464,4.464a1.34,1.34,0,1,1,1.34-1.34A1.34,1.34,0,0,1,12.518,23.679Zm0-4.464a1.34,1.34,0,1,1,1.34-1.34A1.34,1.34,0,0,1,12.518,19.215Zm4.464,4.464a1.34,1.34,0,1,1,1.34-1.34A1.34,1.34,0,0,1,16.983,23.679Zm0-4.464a1.34,1.34,0,1,1,1.34-1.34A1.34,1.34,0,0,1,16.983,19.215Zm0-4.464a1.34,1.34,0,1,1,1.34-1.34A1.34,1.34,0,0,1,16.983,14.75Zm4.464,4.464a1.34,1.34,0,1,1,1.34-1.34A1.34,1.34,0,0,1,21.447,19.215Zm0-4.464a1.34,1.34,0,1,1,1.34-1.34A1.34,1.34,0,0,1,21.447,14.75Zm4.018-6.7v.893a.447.447,0,0,1-.447.447H4.483a.447.447,0,0,1-.447-.447V7.607A1.791,1.791,0,0,1,5.822,5.821H23.679a1.791,1.791,0,0,1,1.786,1.786Z" transform="translate(-2.25 -2.251)" fill="#fff"/>
</svg>
