<svg xmlns="http://www.w3.org/2000/svg" xmlns:xlink="http://www.w3.org/1999/xlink" width="14" height="14" viewBox="0 0 14 14">
  <defs>
    <rect id="rect-1" width="14" height="14" x="0" y="0"/>
    <mask id="mask-2" maskContentUnits="userSpaceOnUse" maskUnits="userSpaceOnUse">
      <rect width="14" height="14" x="0" y="0" fill="black"/>
      <use fill="white" xlink:href="#rect-1"/>
    </mask>
  </defs>
  <g>
    <use fill="none" xlink:href="#rect-1"/>
    <g mask="url(#mask-2)">
      <path fill="rgb(0,0,0)" fill-rule="evenodd" d="M11.08332825 2.33332825h-.29632569L9.5130005.68133545C9.1803131.25323486 8.66917419.00196838 8.1269989 0H5.8730011C5.3308258.00196838 4.81968689.25323486 4.4869995.68133545l-1.27400207 1.6519928h-.29632569C1.30664063 2.3352661.00192261 3.63996887 0 5.25v5.83332825C.0019226 12.69335938 1.30664063 13.99807739 2.91667175 14h8.1666565C12.69335938 13.9980774 13.99807739 12.69335937 14 11.08332825V5.25c-.0019226-1.61003113-1.30664063-2.91473389-2.91667175-2.91667175zm-5.67233277-.93916321c.11071778-.1429596.2811737-.22688294.46199036-.22749329H8.1269989c.18078613.0007782.35115051.08467102.46199036.22749329l.72450256.93917847h-4.6269989l.72450256-.93917847zm5.67234803 11.4391632c.9664917 0 1.75-.78349303 1.75-1.75V5.25c0-.9664917-.7835083-1.75-1.75-1.75H2.91667175c-.9664917 0-1.75.7835083-1.75 1.75v5.83332825c0 .96650696.7835083 1.75 1.75 1.75h8.16667176z"/>
      <path fill="rgb(0,0,0)" fill-rule="evenodd" d="M3.5 8.16667175c0-1.93299865 1.56700134-3.5 3.5-3.5 1.93218994.00192261 3.4980774 1.56781006 3.5 3.5 0 1.93299866-1.56700134 3.5-3.5 3.5s-3.5-1.56700134-3.5-3.5zm1.16667175-.00001526C4.66667175 9.45532227 5.71133423 10.5 7 10.5c1.28866577 0 2.3333435-1.04467773 2.3333435-2.3333435 0-1.28866578-1.04467773-2.33332825-2.3333435-2.33332825-1.28866577 0-2.33332825 1.04466247-2.33332825 2.33332824z"/>
    </g>
  </g>
</svg>
