<svg xmlns="http://www.w3.org/2000/svg" width="40.395" height="30.622" viewBox="0 0 40.395 30.622">
  <g id="Carga_de_auto_._icon" data-name="Carga de auto . icon" transform="translate(-122.79 409.465)">
    <path id="Trazado_240" data-name="Trazado 240" d="M162.132-369.564a4.177,4.177,0,0,0-.472-.014c-6.718,0-17.982,0-24.7,0-.367,0-.735-.02-1.1-.056a5.82,5.82,0,0,1-5.03-4.822,33.454,33.454,0,0,1-.087-3.346c-.012-.279.087-.339.349-.369a6.537,6.537,0,0,0,5.641-6.022c.074-2,.038-4,.014-5.994a1.912,1.912,0,0,0-1.836-1.861,10.383,10.383,0,0,0-1.3-.007c-.368.026-.491-.063-.482-.462.03-1.3.009-2.6.013-3.9a.923.923,0,0,0-.252-.757.755.755,0,0,0-.84-.161.8.8,0,0,0-.506.813c0,1.381-.007,2.761.006,4.141,0,.262-.072.332-.329.328-.933-.014-1.867-.02-2.8,0-.321.008-.423-.068-.417-.405.021-1.327.006-2.655.01-3.983a.893.893,0,0,0-.27-.749.753.753,0,0,0-.843-.136.8.8,0,0,0-.485.788c0,1.38-.008,2.761.007,4.141,0,.283-.081.356-.353.345-.472-.019-.947-.017-1.419.01a1.915,1.915,0,0,0-1.7,1.2c-.047.1-.028.239-.154.3v6.706c.112.41.191.832.34,1.229a6.451,6.451,0,0,0,5.654,4.465c.258.03.356.1.348.378-.021.71-.015,1.419,0,2.129a8.158,8.158,0,0,0,.18,1.8,7.413,7.413,0,0,0,7.406,5.861c6.849.006,18.245,0,25.094,0A2.077,2.077,0,0,0,162.2-368a.788.788,0,0,0,.653-.813A.772.772,0,0,0,162.132-369.564Zm-35.551-11.005a4.922,4.922,0,0,1-2.183-4.187c-.015-1.707-.006-3.415,0-5.123,0-.483.114-.585.618-.585h4.768q2.384,0,4.768,0c.492,0,.609.112.609.6,0,1.707.017,3.415,0,5.123a4.965,4.965,0,0,1-4.932,5.032A5.657,5.657,0,0,1,126.582-380.569Z" transform="translate(0 -10.867)" fill="#ffae3b"/>
    <path id="Trazado_241" data-name="Trazado 241" d="M308.952-406.346a2.976,2.976,0,0,0-3.093-3.115q-9.111-.012-18.221,0a3,3,0,0,0-1.41.31,3,3,0,0,0-1.678,2.889c.007,3,0,5.995,0,8.993s0,5.968,0,8.952a3.305,3.305,0,0,0,.305,1.568,2.991,2.991,0,0,0,2.884,1.687c3.3-.007,6.6,0,9.9,0,2.721,0,5.443.006,8.165,0a2.979,2.979,0,0,0,3.149-3.135Q308.959-397.275,308.952-406.346Zm-1.6,18.063a1.43,1.43,0,0,1-1.626,1.617q-8.972,0-17.942,0a1.423,1.423,0,0,1-1.625-1.614q0-4.515,0-9.031v-8.912a1.435,1.435,0,0,1,1.641-1.641h17.9a1.441,1.441,0,0,1,1.649,1.637Q307.35-397.255,307.349-388.283Z" transform="translate(-145.771)" fill="#ffd489"/>
    <path id="Trazado_242" data-name="Trazado 242" d="M335.354-366.718a7.964,7.964,0,0,0-8,7.9,7.967,7.967,0,0,0,7.918,8.062,8.018,8.018,0,0,0,8.026-7.92A8.01,8.01,0,0,0,335.354-366.718Zm-.046,14.337a6.389,6.389,0,0,1-6.219-5.042c-.072-.333-.079-.533.357-.57a.731.731,0,0,0,.623-.748.74.74,0,0,0-.656-.758c-.419-.028-.39-.23-.33-.529a6.391,6.391,0,0,1,6.388-5.074,6.386,6.386,0,0,1,6.123,5.247c.034.2.027.294-.223.323a.793.793,0,0,0-.787.774.8.8,0,0,0,.795.81c.271.027.244.139.214.322A6.376,6.376,0,0,1,335.307-352.381Z" transform="translate(-184.343 -38.521)" fill="#ffae3b"/>
    <path id="Trazado_243" data-name="Trazado 243" d="M380.746-302.085a.818.818,0,0,1-.792.9.814.814,0,0,1-.825-.9c-.016-.643-.017-1.289,0-1.932a.816.816,0,0,1,.831-.9.825.825,0,0,1,.786.906c.012.328,0,.657,0,.986S380.758-302.4,380.746-302.085Z" transform="translate(-230.99 -94.208)" fill="#ffd489"/>
    <path id="Trazado_244" data-name="Trazado 244" d="M421.977-302a.778.778,0,0,1-.786.81.775.775,0,0,1-.8-.795c-.018-.709-.017-1.418,0-2.127a.781.781,0,0,1,.788-.812.78.78,0,0,1,.8.8c.017.354,0,.709,0,1.064h0C421.98-302.705,421.993-302.349,421.977-302Z" transform="translate(-268.172 -94.211)" fill="#ffd489"/>
  </g>
</svg>
