<svg xmlns="http://www.w3.org/2000/svg" width="20" height="20" viewBox="0 0 20 20">
  <g>
    <path fill="rgb(255,174,59)" fill-rule="evenodd" d="M0 10C0 4.48760986 4.48760223 0 10 0s10 4.48760986 10 10-4.48760223 10-10 10S0 15.51239014 0 10zm2.07024765 0c0 4.3718872 3.55784988 7.92974854 7.92975235 7.92974854S17.92975235 14.3718872 17.92975235 10c0-4.3718872-3.55784988-7.92974854-7.92975235-7.92974854S2.07024765 5.6281128 2.07024765 10z"/>
    <path fill="rgb(255,174,59)" fill-rule="evenodd" d="M11.70661157 9.43801653c-.48347107-.26859504-.99586777-.46694215-1.50413223-.67768595-.29338843-.11983471-.57438017-.26446281-.82231405-.46280992-.4876033-.39256198-.39669422-1.02479339.17768595-1.2768595.16115702-.07024794.33057851-.09504133.50413223-.10330579.66528926-.03719008 1.29338843.08677686 1.89669422.37603306.29752066.1446281.39669421.09917355.5-.2107438.10743801-.33057851.1983471-.66528926.29338843-.99586777.0661157-.2231405-.01652893-.37190083-.22727273-.46280992-.38429752-.16942149-.78099174-.29338843-1.1983471-.3553719-.54132232-.08677686-.54132232-.08677686-.54545455-.6322314-.00413224-.77272728-.00413224-.77272728-.77272728-.76859504-.11157025 0-.2231405-.00413224-.33471074 0-.35950413.01239669-.4214876.07438016-.42975207.4338843-.00413223.16115702 0 .32644627 0 .4876033-.00413223.48347107-.00413223.47520661-.46694215.64049587-1.11570248.40495867-1.80578512 1.16528925-1.88016529 2.38429752-.0661157 1.0785124.49586777 1.80578512 1.3801653 2.33471074.54545454.32644628 1.14876032.52066116 1.72727272.7768595.22727273.09917356.44214876.21487604.62809917.37190083.55785124.45867769.45454546 1.2231405-.20661157 1.5123967-.3553719.15289256-.72727272.19421487-1.10743801.1446281-.5909091-.07438017-1.1570248-.22727273-1.68595042-.50413224-.30991735-.16115702-.40082644-.1198347-.50826446.21900827-.09090909.29338843-.17355372.58677686-.25206611.88016529-.10743802.39669421-.07024794.49173553.30991735.67355372.47933884.23140495.99586777.35123967 1.52066116.43801652.4090909.0661157.42561983.08264463.42975206.50826447 0 .19421487.00413224.38842975.00413224.5785124.00413223.24380165.1198347.38429751.37190082.38842975.28512397.00413223.57024794.00413223.8553719 0 .23140496-.00413224.35123967-.1322314.3553719-.3677686 0-.2644628.0123967-.52892562.00413224-.79338843-.0123967-.26859504.10330578-.40495868.36363636-.47520661.59504132-.16115702 1.10330578-.48347107 1.49586777-.95867769 1.07438016-1.32231405.66115702-3.25206611-.87603306-4.10330578z"/>
  </g>
</svg>
