<svg xmlns="http://www.w3.org/2000/svg" width="15.002" height="15" viewBox="0 0 15.002 15">
  <path fill="rgb(255,174,59)" fill-rule="evenodd" d="M12.20947266 1.6599121C10.43518066.2272339 8.11328125-.31350707 5.83914185.17678834c-.3682251.07910156-.60211182.44186401-.52301026.81008911.07910156.3682251.4425354.60211182.81008911.52304077 1.86911011-.40301513 3.77435303.0381775 5.22610474 1.21105957 1.45315552 1.17218018 2.28573608 2.91375733 2.28573608 4.77807618 0 3.38430786-2.75283813 6.137146-6.13711548 6.137146-3.38430786 0-6.137146-2.75283814-6.137146-6.137146 0-1.01055909.25094605-2.01296998.72555543-2.8973999.17797851-.3320923.05319214-.74533082-.27822876-.92330933-.33209229-.17797852-.7453003-.05316162-.92327881.27822876C.30685425 5.03875732 0 6.26412964 0 7.49905396 0 11.63479614 3.36520386 15 7.50094604 15c4.1357422 0 7.50094605-3.36520386 7.50094605-7.50094604 0-2.27822876-1.01742554-4.40646363-2.79241943-5.83914185zm-9.48187256.38394166c0-.37643433.30548095-.68191528.68191528-.68191528.3764038 0 .68188477.30548095.68188477.68191528 0 .3764038-.30548096.68188477-.68188477.68188477-.37643433 0-.68191528-.30548096-.68191528-.68188477zm4.77334594 4.77331543c-.37573242 0-.68188476-.30618286-.68188476-.68191528 0-.37573243.30615234-.68191529.68188476-.68191529.24139405 0 .49642945.1234436.7378235.35665894.27072143.26184082.70236205.2550354.96420287-.01568604.26187134-.27072143.2550354-.70236206-.01565552-.9642334-.34643554-.33480834-.69213867-.52438354-1.00378418-.62802124v-.79440307c0-.37643433-.30548095-.68191528-.68188476-.68191528-.37643433 0-.68191528.30548095-.68191528.68191528v.79919433c-.7937317.28161622-1.36380005 1.0392151-1.36380005 1.92840577 0 1.12786865.91784668 2.04571533 2.04571533 2.04571533.37573242 0 .68188476.30618286.68188476.68191528 0 .3757019-.30615234.68188477-.68188476.68188477-.29119873 0-.60552979-.18344116-.88580322-.51620484-.24206543-.28842163-.67236328-.32525634-.96081543-.08319091-.28842163.24209594-.32525635.67236328-.08319092.96081542.36483765.4336853.7930603.73577881 1.2472229.8878479v.79577637c0 .37640381.30548096.68188477.68188476.68188477.37643433 0 .68191529-.30548096.68191529-.68188477v-.79919433c.79373169-.28164673 1.36380005-1.0392151 1.36380005-1.92843628 0-1.12716675-.91784668-2.04501343-2.04571534-2.04501343z"/>
</svg>
