<svg xmlns="http://www.w3.org/2000/svg" xmlns:xlink="http://www.w3.org/1999/xlink" width="25.654" height="33.737" viewBox="0 0 25.654 33.737">
  <defs>
    <rect id="rect-1" width="25.654" height="33.737" x="0" y="0"/>
    <mask id="mask-2" maskContentUnits="userSpaceOnUse" maskUnits="userSpaceOnUse">
      <rect width="25.654" height="33.737" x="0" y="0" fill="black"/>
      <use fill="white" xlink:href="#rect-1"/>
    </mask>
  </defs>
  <g>
    <use fill="none" xlink:href="#rect-1"/>
    <g mask="url(#mask-2)">
      <path fill="rgb(255,174,59)" fill-rule="evenodd" d="M17.94151936 25.8635475l.2612475 5.27366247-5.36062208-3.70412007-5.3902806 3.70412007.2612475-5.27366247H5.44896664L5.05898849 33.737H7.6519015l5.18771914-3.56913942L18.00272952 33.737h2.59291302l-.38997815-7.8734525h-2.26414503z"/>
      <path fill="rgb(255,174,59)" fill-rule="evenodd" d="M23.93570105 6.37988281l.15460205 3.37826538 1.5592804 3.003479-1.56369782 3.00222779-.15460205 3.3782959-2.86299515 1.8206482-1.82999801 2.84841918-3.39558411.1538086-3.0175972 1.5557251-3.0175972-1.5557251-3.39558792-.1538086-1.8299942-2.84841919-2.86236572-1.8206482-.15586472-3.37829589L.0000016 12.7616272 1.5636994 9.76193237l.15460205-3.3782959 2.86552048-1.82568359 1.8299942-2.84713745 3.39558792-.15509033L12.82700125 0l3.02012253 1.5557251 3.3955841.15509033 1.8299942 2.84838867 2.86299897 1.82067871zm-2.2073555 11.49597168l.12620926-2.70840454 1.25764465-2.40393066-1.25322723-2.4064026-.12620926-2.70779418-2.2944336-1.46090698-1.4684143-2.28274536-2.72164154-.12557984-2.41938019-1.24871826-2.41874695 1.24685669-2.72164535.12554932-1.4684143 2.28274536-2.2944336 1.4609375-.12620545 2.70776367-1.25323105 2.4064331 1.25196839 2.4032898.12620544 2.70776367 2.29380417 1.46218872 1.4684143 2.28274536 2.72164155.12554932 2.41685486 1.24871826 2.41875076-1.24682617 2.72164154-.12557983 1.4684143-2.28271485 2.2944336-1.4609375z"/>
      <path fill="rgb(255,174,59)" fill-rule="evenodd" d="M19.33294628 10.64463656c-.01632281.1460696-.08920881.28006394-.2031925.3735511l-2.83838471 2.75234955.67268077 3.89246515c.00625377.05165668.00899448.10367453.00820342.15569861.00316083.09845255-.02560109.1953045-.08203424.27623946-.05521984.07567846-.14531297.1182487-.23916136.11300705-.11163912-.0028555-.22051692-.03513575-.31551631-.09354472L12.827 16.2767825l-3.51106548 1.83636461c-.09560868.05704516-.20411765.08921606-.3155163.09354473-.0959766.00622763-.18859833-.03630302-.24610273-.11300705-.05653439-.08091723-.08550714-.17773439-.08266527-.27623946.00204165-.05217249.00731022-.1041704.01577581-.15569861l.67268077-3.89246515-2.84343297-2.75109393c-.1096653-.09726716-.17933412-.23142288-.1956201-.37669017 0 0 0-.28754017.43793663-.35785567l3.9256539-.56503526 1.75742584-3.53963203s.15018577-.31893101.3849299-.31893101c0 0 .23474413 0 .3830368.31893101l1.75931893 3.53963203 3.92565391.56503526s.43793664.0703155.43793664.35785567v.00313908z"/>
    </g>
  </g>
</svg>
