<svg xmlns="http://www.w3.org/2000/svg" width="36.595" height="41.542" viewBox="0 0 36.595 41.542">
  <g id="Financiamiento.icon" transform="translate(-582.814 -400.615)">
    <path id="Trazado_225" data-name="Trazado 225" d="M794.786,400.615a.976.976,0,0,1,.438.919c-.014,2-.006,4-.007,6a1.642,1.642,0,0,1-.027.4.669.669,0,0,1-1.3,0,1.914,1.914,0,0,1-.028-.444c0-1.974.007-3.947-.008-5.921a1,1,0,0,1,.442-.958Z" transform="translate(-193.002)" fill="#ffd489"/>
    <path id="Trazado_226" data-name="Trazado 226" d="M589.9,727.815a10.135,10.135,0,0,1,2.312-.8,8.313,8.313,0,0,1,5.6.715,8.358,8.358,0,0,0,4.035.985c1.256-.006,2.513.06,3.77.092a4.255,4.255,0,0,1,3.66,2.029c.15.231.256.218.464.119,1.715-.818,3.429-1.639,5.154-2.433a3.424,3.424,0,0,1,4.291,1.22c.355.536.293.878-.239,1.222-3.953,2.558-7.887,5.148-11.874,7.654a7.586,7.586,0,0,1-4.85.938,26.037,26.037,0,0,1-4.231-1.055c-1.719-.458-3.429-.949-5.14-1.434a2.468,2.468,0,0,0-1.918.212,7.038,7.038,0,0,1-.677.362c-.441.179-.735.4-.7.963.025.394-.289.618-.708.609-1.757-.036-3.514-.077-5.27-.133-.553-.017-.781-.3-.766-.873q.156-5.777.319-11.553c.016-.547.269-.8.805-.786q2.554.057,5.108.129c.664.019.88.272.858.946C589.9,727.225,589.9,727.508,589.9,727.815Zm27.838,2.3a2.132,2.132,0,0,0-2.4-.309c-1.694.8-3.381,1.612-5.082,2.4a.46.46,0,0,0-.326.6c.117.679-.055,1.165-1.011,1.128-2.4-.093-4.81-.137-7.216-.2a4.014,4.014,0,0,1-.686-.052.614.614,0,0,1-.522-.672.621.621,0,0,1,.566-.637,2.3,2.3,0,0,1,.4-.007c2.243.059,4.487.115,6.73.183.28.009.342-.04.247-.325a2.973,2.973,0,0,0-2.662-2.037c-.959-.039-1.919-.055-2.878-.086-.878-.028-1.758-.037-2.634-.1a8.9,8.9,0,0,1-3.077-1.057,7.327,7.327,0,0,0-7.093.339.49.49,0,0,0-.282.475c-.024,1.162-.078,2.324-.1,3.487-.017,1.036,0,2.073,0,3.114-.025,0,.006.01.027,0,.169-.083.338-.167.5-.258a3.83,3.83,0,0,1,3.013-.333c1.348.384,2.694.777,4.049,1.132a41.837,41.837,0,0,0,4.808,1.261,6.675,6.675,0,0,0,4.762-1.012c1.235-.823,2.491-1.615,3.737-2.421Zm-33.4,2.351h.011c-.049,1.646-.1,3.293-.152,4.939-.008.222.005.334.285.337q1.721.018,3.441.092c.291.013.318-.1.324-.338q.127-4.92.275-9.839c.007-.244-.037-.319-.3-.322q-1.7-.02-3.4-.088c-.257-.01-.341.047-.347.32C584.442,729.2,584.386,730.835,584.337,732.468Z" transform="translate(0 -297.449)" fill="#ffae3b"/>
    <path id="Trazado_227" data-name="Trazado 227" d="M696.091,526.525a9.872,9.872,0,1,1,9.9-9.839A9.881,9.881,0,0,1,696.091,526.525Zm0-1.356a8.513,8.513,0,1,0-8.5-8.551A8.522,8.522,0,0,0,696.088,525.17Z" transform="translate(-94.565 -97.091)" fill="#ffae3b"/>
    <path id="Trazado_228" data-name="Trazado 228" d="M855.021,442.724c0,.485.008.971,0,1.456a.676.676,0,0,1-.686.734.668.668,0,0,1-.659-.72q-.017-1.5,0-2.993a.663.663,0,0,1,.666-.711.672.672,0,0,1,.68.738C855.029,441.726,855.021,442.225,855.021,442.724Z" transform="translate(-247.697 -36.466)" fill="#ffd489"/>
    <path id="Trazado_229" data-name="Trazado 229" d="M734.144,442.7c0-.485-.007-.971,0-1.456a.678.678,0,0,1,.66-.759c.411-.008.684.284.688.772q.012,1.435,0,2.871c0,.486-.276.785-.682.781s-.661-.3-.668-.794C734.139,443.647,734.144,443.175,734.144,442.7Z" transform="translate(-138.392 -36.465)" fill="#ffd489"/>
    <path id="Trazado_233" data-name="Trazado 233" d="M769.133,551.271a1.528,1.528,0,0,0,1.29,1.491,9.747,9.747,0,0,1,1,.129,2.926,2.926,0,0,1,2.155,2.6,2.839,2.839,0,0,1-1.7,2.832c-.46.186-.692.374-.632.9a.586.586,0,0,1-.562.633.617.617,0,0,1-.714-.407,1.334,1.334,0,0,1-.056-.559.43.43,0,0,0-.322-.5,2.845,2.845,0,0,1-1.82-2.431c-.067-.521.182-.89.605-.933s.706.255.756.8a1.547,1.547,0,0,0,3.078.029,1.539,1.539,0,0,0-1.272-1.668c-.332-.065-.671-.034-1-.124a2.93,2.93,0,0,1-2.172-2.633,2.88,2.88,0,0,1,1.794-2.856.463.463,0,0,0,.353-.562.889.889,0,0,1,.081-.553.637.637,0,0,1,.714-.341c.325.065.576.277.537.61-.062.529.187.706.637.9a2.763,2.763,0,0,1,1.7,2.468.71.71,0,0,1-.633.836c-.393.031-.69-.272-.731-.745a1.543,1.543,0,0,0-3.085.09Z" transform="translate(-169.137 -133.961)" fill="#ffd489"/>
  </g>
</svg>
