<svg xmlns="http://www.w3.org/2000/svg" width="37.258" height="37.182" viewBox="0 0 37.258 37.182">
  <g id="Cortes_de_cabello._icon" data-name="Cortes de cabello. icon" transform="translate(-1287.648 61.714)">
    <path id="Trazado_222" data-name="Trazado 222" d="M1410.266-34.7l7.409-25.921-2.624.759a.7.7,0,0,0-.443.382l-8.077,17.755a1.023,1.023,0,0,0-.089.505l.435,5.488a5.226,5.226,0,0,0-4.962,5.372,5.244,5.244,0,0,0,4.976,5.067,5.226,5.226,0,0,0,5.473-5.22A5.218,5.218,0,0,0,1410.266-34.7Zm-3.065,6.724a2.506,2.506,0,0,1-2.506-2.506,2.506,2.506,0,0,1,2.506-2.506,2.506,2.506,0,0,1,2.506,2.506A2.506,2.506,0,0,1,1407.2-27.972Z" transform="translate(-103.326 0)" fill="none" stroke="#ffd489" stroke-width="1.5"/>
    <path id="Trazado_223" data-name="Trazado 223" d="M1293.659,52.957a5.226,5.226,0,1,0,5.182,5.522l5.485.472a1.025,1.025,0,0,0,.506-.085l17.809-7.959a.7.7,0,0,0,.385-.44l.776-2.619-25.969,7.237A5.218,5.218,0,0,0,1293.659,52.957Zm-.048,2.658a2.506,2.506,0,1,1-2.522,2.489A2.506,2.506,0,0,1,1293.611,55.616Z" transform="translate(0 -98.728)" fill="#fff4e0" stroke="#ffae3b" stroke-width="1.5"/>
    <circle id="Elipse_17" data-name="Elipse 17" cx="0.733" cy="0.733" r="0.733" transform="translate(1305.482 -43.328)" fill="#ffae3b"/>
  </g>
</svg>
