<svg xmlns="http://www.w3.org/2000/svg" xmlns:xlink="http://www.w3.org/1999/xlink" width="31" height="31" viewBox="0 0 31 31">
  <defs>
    <rect id="rect-1" width="31" height="31" x="0" y="0"/>
    <mask id="mask-2" maskContentUnits="userSpaceOnUse" maskUnits="userSpaceOnUse">
      <rect width="31" height="31" x="0" y="0" fill="black"/>
      <use fill="white" xlink:href="#rect-1"/>
    </mask>
  </defs>
  <g>
    <use fill="transparent" xlink:href="#rect-1"/>
    <g mask="url(#mask-2)">
      <path fill="none" fill-rule="evenodd" d="M10.33333206 12.91669591c0-2.85351562 2.31319428-5.166687 5.16666794-5.166687 2.85346985 0 5.16666412 2.31317138 5.16666412 5.166687 0 2.8534546-2.31319427 5.16662598-5.16666412 5.16662598-2.85347366 0-5.16666794-2.31317139-5.16666794-5.16662598zm2.58333588-.00006103c0 1.42675781 1.15659714 2.58337402 2.58333206 2.58337402 1.42673492 0 2.58333588-1.15661621 2.58333588-2.58337402 0-1.42669678-1.15660096-2.583313-2.58333588-2.583313s-2.58333206 1.15661622-2.58333206 2.583313z"/>
      <path fill="none" fill-rule="evenodd" d="M9.93162537 28.1583341C11.217453 29.9520963 13.2930069 31.0113004 15.5 31.0000089c2.2069931.0112915 4.28254318-1.0479126 5.56837463-2.8416748 4.92253876-6.7902832 7.41933442-11.8949585 7.41933442-15.17315674 0-7.1729126-5.81479645-12.98773194-12.98770905-12.98773194-7.1729126 0-12.98770905 5.81481934-12.98770905 12.98773194 0 3.27819824 2.49679184 8.38287353 7.41933442 15.17315674zM5.32941818 12.98774083C5.33582306 7.37329992 9.88559723 2.82355626 15.5 2.81714757c5.61440277.0064087 10.16417694 4.55615235 10.17058563 10.17059326 0 2.59625245-2.44512558 7.39733887-6.88329315 13.5185547-.76425934 1.05267333-1.98643494 1.6757202-3.28729248 1.6757202s-2.52302933-.62304687-3.28728867-1.6757202c-4.43816757-6.12121583-6.88329315-10.92230225-6.88329315-13.5185547z"/>
    </g>
  </g>
</svg>
