<svg width="31" height="31" viewBox="0 0 31 31" fill="none" xmlns="http://www.w3.org/2000/svg">
<g clip-path="url(#clip0_6_22)">
<path fill-rule="evenodd" clip-rule="evenodd" d="M10.3334 12.9167C10.3334 10.0632 12.6466 7.75 15.5 7.75C18.3535 7.75 20.6667 10.0632 20.6667 12.9167C20.6667 15.7701 18.3535 18.0833 15.5 18.0833C12.6466 18.0833 10.3334 15.7701 10.3334 12.9167V12.9167ZM12.9167 12.9166C12.9167 14.3434 14.0733 15.5 15.5 15.5C16.9268 15.5 18.0834 14.3434 18.0834 12.9166C18.0834 11.4899 16.9268 10.3333 15.5 10.3333C14.0733 10.3333 12.9167 11.4899 12.9167 12.9166Z" fill="#FFAE3B"/>
<path fill-rule="evenodd" clip-rule="evenodd" d="M9.93166 28.1583C11.2175 29.9521 13.293 31.0113 15.5 31C17.707 31.0113 19.7826 29.9521 21.0684 28.1583C25.991 21.368 28.4877 16.2634 28.4877 12.9852C28.4877 5.81226 22.673 -0.00256348 15.5 -0.00256348C8.32713 -0.00256348 2.51233 5.81226 2.51233 12.9852C2.51233 16.2634 5.00912 21.368 9.93166 28.1583ZM5.32946 12.9877C5.33586 7.37329 9.88564 2.82355 15.5 2.81714C21.1144 2.82355 25.6642 7.37329 25.6706 12.9877C25.6706 15.584 23.2255 20.3851 18.7873 26.5063C18.0231 27.559 16.8009 28.182 15.5 28.182C14.1992 28.182 12.977 27.559 12.2127 26.5063C7.77458 20.3851 5.32946 15.584 5.32946 12.9877V12.9877Z" fill="#FFAE3B"/>
</g>
<defs>
<clipPath id="clip0_6_22">
<rect width="31" height="31" fill="white"/>
</clipPath>
</defs>
</svg>
