<svg xmlns="http://www.w3.org/2000/svg" xmlns:xlink="http://www.w3.org/1999/xlink" width="31" height="31" viewBox="0 0 31 31">
  <defs>
    <rect id="rect-1" width="31" height="31" x="0" y="0"/>
    <mask id="mask-2" maskContentUnits="userSpaceOnUse" maskUnits="userSpaceOnUse">
      <rect width="31" height="31" x="0" y="0" fill="black"/>
      <use fill="white" xlink:href="#rect-1"/>
    </mask>
  </defs>
  <g>
    <use fill="none" xlink:href="#rect-1"/>
    <g mask="url(#mask-2)">
      <path fill="rgb(132,132,132)" fill-rule="evenodd" d="M29.86204529 1.13929113c-.94186402-.9533081-2.3133545-1.34515381-3.6166687-1.0333252L5.57870483 4.45887121C3.15101623 4.79181798 1.12149048 6.47126134.3401947 8.7937711c-.78129577 2.32250976-.17947387 4.887146 1.5533905 6.61968994l2.2190857 2.21783447c.24256897.24249268.37872314.57147217.37844848.91448975v4.09197998c.0028534.57537842.13529969 1.1427002.38751221 1.65979004l-.01034546.0090332.0335846.03363037c.378479.7609253.9966278 1.37634278 1.75924682 1.75146485l.0335846.03356933.00904846-.01031494c.51713562.25219727 1.08444214.38464355 1.65979004.3875122h4.09199524c.34236145-.00030517.67082214.13537598.913208.37713624l2.21780396 2.21783447c1.20144653 1.21472168 2.8381195 1.8996582 4.54666138 1.9025879.70492554-.0008545 1.40505981-.11602784 2.07312012-.34100343 2.30136108-.75567627 3.97521972-2.75085449 4.31933593-5.14855957l4.359375-20.71185302c.32807923-1.31481934-.06062317-2.70526124-1.022995-3.65930176zM5.94166565 15.80738195l-2.2203827-2.21777344c-1.05554198-1.03009033-1.41915893-2.57824707-.93258666-3.97058105C3.2605896 8.19019445 4.52227783 7.1677335 6.01786804 7.0020841L26.4791565 2.69440587 7.0718689 22.10425695v-3.55853272c.00395203-1.02703857-.40299987-2.01306152-1.13020324-2.73834228zM21.38500977 28.2078336c1.39245605-.4683838 2.4002533-1.684021 2.60253906-3.13916016L28.30688477 4.5208219 8.89700317 23.92426427h3.55854798c1.02716064-.00262451 2.01271057.40576172 2.73703003 1.1340332l2.22166443 2.2216797c1.04067993 1.0369873 2.5783081 1.39630126 3.97076416.92785644z"/>
    </g>
  </g>
</svg>
