<svg width="31" height="31" viewBox="0 0 31 31" fill="none" xmlns="http://www.w3.org/2000/svg">
<g clip-path="url(#clip0_5_6)">
<path fill-rule="evenodd" clip-rule="evenodd" d="M29.8621 1.1393C28.9202 0.185989 27.5487 -0.205856 26.2454 0.105972L5.57872 4.45888C3.15103 4.79182 1.12151 6.47127 0.340211 8.79378C-0.441085 11.1163 0.160737 13.6809 1.8936 15.4135L4.11269 17.6313C4.35526 17.8738 4.49141 18.2028 4.49114 18.5458V22.6378C4.49399 23.2132 4.62643 23.7805 4.87865 24.2976L4.8683 24.3066L4.90189 24.3402C5.28037 25.1012 5.89851 25.7166 6.66113 26.0917L6.69472 26.1253L6.70377 26.1149C7.2209 26.3671 7.78821 26.4996 8.36356 26.5025H12.4556C12.7979 26.5022 13.1264 26.6378 13.3688 26.8796L15.5866 29.0974C16.788 30.3121 18.4247 30.9971 20.1332 31C20.8382 30.9992 21.5383 30.884 22.2063 30.659C24.5077 29.9033 26.1816 27.9082 26.5257 25.5105L30.8851 4.7986C31.2131 3.48378 30.8244 2.09334 29.8621 1.1393ZM5.94168 15.8074L3.7213 13.5896C2.66576 12.5595 2.30214 11.0114 2.78871 9.61903C3.26061 8.1902 4.52229 7.16774 6.01788 7.00209L26.4792 2.69441L7.07188 22.1043V18.5457C7.07584 17.5187 6.66888 16.5327 5.94168 15.8074ZM21.385 28.2078C22.7775 27.7395 23.7853 26.5238 23.9876 25.0687L28.3069 4.52083L8.89702 23.9243H12.4556C13.4827 23.9216 14.4683 24.33 15.1926 25.0583L17.4143 27.28C18.4549 28.317 19.9926 28.6763 21.385 28.2078Z" fill="#FFAE3B"/>
</g>
<defs>
<clipPath id="clip0_5_6">
<rect width="31" height="31" fill="white"/>
</clipPath>
</defs>
</svg>
