<svg xmlns="http://www.w3.org/2000/svg" xmlns:xlink="http://www.w3.org/1999/xlink" width="35" height="31" viewBox="0 0 35 31">
  <defs>
    <rect id="rect-1" width="17" height="17" x="18" y="14"/>
    <mask id="mask-2" maskContentUnits="userSpaceOnUse" maskUnits="userSpaceOnUse">
      <rect width="35" height="31" x="0" y="0" fill="black"/>
      <use fill="white" xlink:href="#rect-1"/>
    </mask>
  </defs>
  <g>
    <g>
      <use fill="none" xlink:href="#rect-1"/>
      <g mask="url(#mask-2)"/>
    </g>
    <path fill="rgb(0,0,0)" fill-rule="evenodd" d="M30.7000103 1.98248291c.30997086-.0831604.64101028-.01248169.8900032.19000244.27740097.17773438.44946099.4807129.46000481.80999756v8.13079834c-.6536007-.3039856-1.33905983-.55081177-2.04994774-.73406982l-.00005722-6.03674317-8.3199997 2.64001465v1.86999512h-1.59999847v-2.1000061l-8.40000152-4.2999878v2.33999634h-1.59999848v-2.3500061L2.00001335 5.77246094v18.32000732l8.08000183-3.32998657v-1.72000122h1.59999848v1.69000244l3.32791519 1.70755005c.0289688.80285644.1369667 1.58569336.31643677 2.3409729l-4.32435227-2.21853638-9.61999893 3.9500122c-.30764008.1263733-.65798187.09155274-.93471527-.09292602-.27672959-.18450927-.44363022-.49450683-.4452858-.8270874V5.1124878c-.00204086-.40734863.24320603-.77520752.61999893-.93002319l10-4.08999634c.26642609-.12329101.57357407-.12329101.84000016 0l9.63000106 4.89001465 9.6099968-3z"/>
    <path fill="rgb(0,0,0)" fill-rule="evenodd" d="M10.08001335 7.04248828h1.6v3.81h-1.6v-3.81z"/>
    <path fill="rgb(0,0,0)" fill-rule="evenodd" d="M10.08001335 13.11248828h1.6v3.75h-1.6v-3.75z"/>
    <path fill="rgb(0,0,0)" fill-rule="evenodd" d="M29.15191078 13.43582153c3.01649857 1.0013733 5.22230911 3.60202027 5.71799088 6.7414856l-.00283814-.0007019c.45902252 3.05340576-.77389526 6.11560058-3.22064209 7.99908447-2.446743 1.88348388-5.72245407 2.29199218-8.55683136 1.06710815-2.83437347-1.22491455-4.7815895-3.89050293-5.08652496-6.96313476-.01849747-.1994629.04771423-.39749146.18245315-.54571534.13473511-.14819336.3255806-.23294067.52588273-.23345947.35984039-.00567627.66459655.26403809.70266723.62191773.28862763 3.3106079 2.84208298 5.97436523 6.13754654 6.40264892 3.29546356.4282837 6.44496155-1.49432373 7.5702095-4.6211853 1.12524415-3.1268921-.07696533-6.61547852-2.88965606-8.38531494-2.81269837-1.76980591-6.47798157-1.34396363-8.80997467 1.02359009h1.94862365c.39120102 0 .70833207.31713867.70833207.7083435 0 .39120484-.31713105.70831299-.70833207.70831299h-2.83333206c-.78240585 0-1.41666794-.63424683-1.41666794-1.4166565v-2.8333435c0-.39117432.31713105-.70831299.70833207-.70831299.39120102 0 .70833587.31713867.70833587.70831299v1.71063232c2.27477265-2.2197876 5.5979271-2.98498535 8.61442566-1.98361206zm-3.35717773 4.52301026c0-.39120484.31713104-.7083435.70833206-.7083435.39120483 0 .70833588.31713866.70833588.7083435v3.24841308l1.91745758 1.91744995c.26843643.27792359.26459884.71972657-.00862885.99295044-.2732277.27322388-.71501923.2770691-.99295425.00863648l-2.125-2.125c-.13284684-.1328125-.20750046-.31295777-.20754242-.50079346v-3.5416565z"/>
  </g>
</svg>
