<svg xmlns="http://www.w3.org/2000/svg" xmlns:xlink="http://www.w3.org/1999/xlink" width="32.051" height="27.604" viewBox="0 0 32.051 27.604">
  <defs>
    <rect id="rect-1" width="32.051" height="27.604" x="0" y="0"/>
    <mask id="mask-2" maskContentUnits="userSpaceOnUse" maskUnits="userSpaceOnUse">
      <rect width="32.051" height="27.604" x="0" y="0" fill="black"/>
      <use fill="white" xlink:href="#rect-1"/>
    </mask>
  </defs>
  <g>
    <use fill="none" xlink:href="#rect-1"/>
    <g mask="url(#mask-2)">
      <path fill="rgb(0,0,0)" fill-rule="evenodd" d="M30.69999695 1.98199463c.30997085-.0831604.64101028-.0124817.8900032.19000244.27740097.17773438.44946099.4807129.4600048.80999756v20.48999023c.02076722.45361328-.26669501.86425782-.70000648 1l-10 3.11999512c-.25845718.02359009-.51883316-.01409912-.75999832-.10998535L11 22.5619812l-9.61999893 3.9500122c-.30764008.1263733-.65798187.09155274-.93471527-.09292602C.1685562 26.23455811.00165558 25.92456055 0 25.59197998V5.11199951c-.00204086-.40734863.24320602-.77520752.61999893-.9300232l10-4.08999633c.26642609-.12329102.57357407-.12329102.84000015 0l9.63000107 4.89001465 9.6099968-3zM21.6800003 25.3319702L30 22.73199463V4.34197998l-8.3199997 2.64001465v1.86999512h-1.59999847v-2.1000061l-8.40000152-4.2999878v2.33999634h-1.59999848v-2.3500061L2 5.77197265v18.32000732l8.08000183-3.32998657v-1.72000122h1.59999848v1.69000244l8.40000152 4.30999756v-2h1.59999848v2.28997802z"/>
      <path fill="rgb(0,0,0)" fill-rule="evenodd" d="M20.08 11.042h1.6v3.81h-1.6v-3.81z"/>
      <path fill="rgb(0,0,0)" fill-rule="evenodd" d="M20.08 17.042h1.6v3.81h-1.6v-3.81z"/>
      <path fill="rgb(0,0,0)" fill-rule="evenodd" d="M10.08 7.042h1.6v3.81h-1.6v-3.81z"/>
      <path fill="rgb(0,0,0)" fill-rule="evenodd" d="M10.08 13.112h1.6v3.75h-1.6v-3.75z"/>
    </g>
  </g>
</svg>
