<svg xmlns="http://www.w3.org/2000/svg" xmlns:xlink="http://www.w3.org/1999/xlink" width="31" height="31" viewBox="0 0 31 31">
  <defs>
    <rect id="rect-1" width="31" height="31" x="0" y="0"/>
    <mask id="mask-2" maskContentUnits="userSpaceOnUse" maskUnits="userSpaceOnUse">
      <rect width="31" height="31" x="0" y="0" fill="black"/>
      <use fill="white" xlink:href="#rect-1"/>
    </mask>
  </defs>
  <g>
    <use fill="none" xlink:href="#rect-1"/>
    <g mask="url(#mask-2)">
      <path fill="rgb(132,132,132)" fill-rule="evenodd" d="M29.13354492 17.64672852l-2.4541626-8.82983399C25.1992798 3.4944458 20.28686523-.13775635 14.76434326.00701904 9.24185181.15185547 4.52648926 4.036438 3.32733154 9.42913818l-1.90003967 8.54437256c-.42510986 1.91235352.04078674 3.91436768 1.2665863 5.44250488 1.22579956 1.52819825 3.07899475 2.4173584 5.03804016 2.41729737H9.1708374c.61120606 3.01000976 3.25775147 5.17315674 6.3291626 5.17315674 3.07144165 0 5.71795654-2.16314698 6.3291626-5.17315674h1.08242798c2.0182495.00012207 3.9205017-.9432373 5.14190673-2.54992676 1.22137452-1.60675049 1.62142945-3.6920166 1.08132935-5.63665771h-.00128174zM22.91027832 23.25c1.21237183.00482178 2.35601807-.5625 3.08578491-1.53063965.73693848-.96203613.97723389-2.21514892.6484375-3.38153076l-2.4541626-8.82983398c-1.16226196-4.1807251-5.02069091-7.03387452-9.35842895-6.92022706-4.33773804.11364747-8.04148865 3.164917-8.98324585 7.4006958l-1.89875793 8.5456543c-.2550354 1.14733887.02441406 2.34832764.75971984 3.26519776.73529053.91687011 1.84698487 1.45050048 3.02227784 1.45068359h15.17837524zM15.5 28.41662598c-1.63626099-.0067749-3.09191895-1.04058838-3.6373291-2.583313h7.2746582c-.54541015 1.54272462-2.00106811 2.5765381-3.6373291 2.583313z"/>
    </g>
  </g>
</svg>
