<svg width="31" height="31" viewBox="0 0 31 31" fill="none" xmlns="http://www.w3.org/2000/svg">
<g clip-path="url(#clip0_6_16)">
<path fill-rule="evenodd" clip-rule="evenodd" d="M29.1335 17.6467L26.6794 8.81689C25.1993 3.49444 20.2868 -0.13776 14.7643 0.00701498C9.24182 0.151851 4.52646 4.03643 3.3273 9.42913L1.42726 17.9735C1.00215 19.8859 1.46805 21.8879 2.69385 23.416C3.91965 24.9442 5.77284 25.8334 7.73189 25.8333H9.17081C9.78201 28.8433 12.4286 31.0065 15.5 31.0065C18.5714 31.0065 21.2179 28.8433 21.8291 25.8333H22.9116C24.9298 25.8334 26.8321 24.8901 28.0535 23.2834C29.2748 21.6766 29.6749 19.5914 29.1348 17.6467H29.1335V17.6467ZM22.9102 23.25C24.1226 23.2548 25.2663 22.6875 25.996 21.7194C26.733 20.7573 26.9733 19.5042 26.6445 18.3378L24.1903 9.50799C23.028 5.32727 19.1696 2.47412 14.8319 2.58776C10.4941 2.70141 6.79039 5.75268 5.84863 9.98846L3.94988 18.5341C3.69484 19.6815 3.97429 20.8824 4.7096 21.7993C5.44489 22.7162 6.55658 23.2498 7.73187 23.25H22.9102V23.25ZM15.5 28.4166C13.8637 28.4098 12.4081 27.376 11.8626 25.8333H19.1373C18.5919 27.376 17.1362 28.4098 15.5 28.4166V28.4166Z" fill="#FFAE3B"/>
</g>
<defs>
<clipPath id="clip0_6_16">
<rect width="31" height="31" fill="white"/>
</clipPath>
</defs>
</svg>
