<svg xmlns="http://www.w3.org/2000/svg" width="29.344" height="24.979" viewBox="0 0 29.344 24.979">
  <g id="Recargar_wallet_icon_app" data-name="Recargar wallet icon app" transform="translate(-16.256 -658.008)">
    <g id="Grupo_48" data-name="Grupo 48" transform="translate(-751.716 281.091)">
      <g id="Grupo_47" data-name="Grupo 47" transform="translate(768.072 377.037)">
        <path id="Trazado_289" data-name="Trazado 289" d="M915.1,452.895a.909.909,0,0,0-.878,1.321,3.079,3.079,0,0,0,1.626,1.558.707.707,0,0,1,.558.817.872.872,0,0,0,1.133.818.886.886,0,0,0,.663-.94.525.525,0,0,1,.408-.618,3.25,3.25,0,0,0,2.151-2.674,3.071,3.071,0,0,0-1.468-3.16,9.036,9.036,0,0,0-1.325-.706,10.563,10.563,0,0,1-1.768-.9,1.279,1.279,0,0,1-.3-1.89,1.688,1.688,0,0,1,2.852.191.9.9,0,0,0,1.283.385.921.921,0,0,0,.292-1.288,3.059,3.059,0,0,0-1.569-1.463c-.434-.167-.6-.359-.572-.836a.869.869,0,0,0-.9-.843.914.914,0,0,0-.9.88,2.424,2.424,0,0,0,0,.369c.016.147-.035.216-.181.257a3.275,3.275,0,0,0-.927,5.821,10.284,10.284,0,0,0,1.3.688,13.049,13.049,0,0,1,1.627.8,1.4,1.4,0,0,1,.745.984,1.574,1.574,0,0,1-.978,1.686,1.645,1.645,0,0,1-2.093-.7A.967.967,0,0,0,915.1,452.895Z" transform="translate(-902.733 -437.688)" fill="#fdfdfd"/>
        <path id="Trazado_290" data-name="Trazado 290" d="M768.072,388.044a1.065,1.065,0,0,1,.743-.63.906.906,0,0,1,.831.266c.209.218.414.44.67.713a13.367,13.367,0,0,1,.309-1.858,12.063,12.063,0,0,1,8.75-9.028,12.284,12.284,0,0,1,14.332,6.392.912.912,0,1,1-1.609.847,10.486,10.486,0,0,0-10.419-5.816,10.47,10.47,0,0,0-9.356,8.374,4.193,4.193,0,0,0-.1.913c.17-.176.335-.357.51-.527a.916.916,0,0,1,1.321-.022.9.9,0,0,1-.027,1.3q-1.078,1.095-2.173,2.173a.891.891,0,0,1-1.32,0c-.73-.718-1.448-1.449-2.177-2.17-.123-.122-.171-.288-.284-.414Z" transform="translate(-768.072 -377.037)" fill="#020202" stroke="#151515" stroke-width="0.2"/>
        <path id="Trazado_291" data-name="Trazado 291" d="M838.374,516.74a1.07,1.07,0,0,1-.743.63.907.907,0,0,1-.831-.266c-.209-.218-.414-.44-.67-.712a13.106,13.106,0,0,1-.31,1.857,12.054,12.054,0,0,1-9.41,9.187,12.262,12.262,0,0,1-13.671-6.551.914.914,0,0,1,.584-1.381.9.9,0,0,1,1.024.532,10.551,10.551,0,0,0,1.753,2.539,10.254,10.254,0,0,0,6.678,3.28A10.527,10.527,0,0,0,833.9,518.39a10.422,10.422,0,0,0,.379-1.876c-.213.221-.372.393-.54.558a.921.921,0,0,1-1.342.044.9.9,0,0,1,.045-1.319q1.061-1.072,2.133-2.133a.9.9,0,0,1,1.362,0c.716.706,1.422,1.422,2.135,2.13a1.639,1.639,0,0,1,.306.492Z" transform="translate(-809.23 -503.001)" fill="#020202" stroke="#151515" stroke-width="0.2"/>
        <path id="Trazado_292" data-name="Trazado 292" d="M915.1,452.895a.967.967,0,0,1,.788.567,1.645,1.645,0,0,0,2.093.7,1.574,1.574,0,0,0,.978-1.686,1.4,1.4,0,0,0-.745-.984,13.049,13.049,0,0,0-1.627-.8,10.284,10.284,0,0,1-1.3-.688,3.275,3.275,0,0,1,.927-5.821c.146-.04.2-.109.181-.257a2.424,2.424,0,0,1,0-.369.914.914,0,0,1,.9-.88.869.869,0,0,1,.9.843c-.031.477.138.669.572.836a3.059,3.059,0,0,1,1.569,1.463.921.921,0,0,1-.292,1.288.9.9,0,0,1-1.283-.385,1.688,1.688,0,0,0-2.852-.191,1.279,1.279,0,0,0,.3,1.89,10.563,10.563,0,0,0,1.768.9,9.036,9.036,0,0,1,1.325.706,3.071,3.071,0,0,1,1.468,3.16,3.25,3.25,0,0,1-2.151,2.674.525.525,0,0,0-.408.618.886.886,0,0,1-.663.94.872.872,0,0,1-1.133-.818.707.707,0,0,0-.558-.817,3.079,3.079,0,0,1-1.626-1.558A.909.909,0,0,1,915.1,452.895Z" transform="translate(-902.733 -437.688)" fill="#020202" stroke="#151515" stroke-width="0.2"/>
      </g>
    </g>
  </g>
</svg>
