<svg xmlns="http://www.w3.org/2000/svg" width="31.509" height="35.522" viewBox="0 0 31.509 35.522">
  <g id="Charlas._icon" data-name="Charlas. icon" transform="translate(-107.505 -226.8)">
    <path id="Trazado_234" data-name="Trazado 234" d="M190.483,419.731c-.567,0-1.134-.013-1.7.006-.25.009-.33-.046-.327-.316.016-1.248.032-2.5,0-3.746a7.815,7.815,0,0,0-3.082-6.094,8.3,8.3,0,0,0-2.628-1.4.263.263,0,0,1,.036-.093.835.835,0,0,1,.163-.164,4.217,4.217,0,0,0,.921-4.57h.005a4.24,4.24,0,0,0-.855-1.334l-.01,0a4.209,4.209,0,0,0-5.853-.243.725.725,0,0,1-.215.137,4.249,4.249,0,0,0-.957,1.437H176a4.323,4.323,0,0,0,1.307,4.915l-.016.007c-.087.038-.155.07-.223.1a8.084,8.084,0,0,0-5.19,7.715c0,1.11-.01,2.22.008,3.329,0,.272-.079.316-.327.314-1.179-.014-.968-.006-2.147-.006-.649,0-1,.252-.988.708s.349.68.981.68h21.051c.567,0,.9-.251.909-.682S191.04,419.733,190.483,419.731Zm-13.382-14.8a2.84,2.84,0,1,1,2.838,2.859A2.869,2.869,0,0,1,177.1,404.931Zm9.7,14.8c-.578-.01-1.156-.014-1.733,0-.224.006-.291-.052-.288-.283.012-1.086.01-2.172,0-3.259,0-.516-.306-.814-.762-.773-.388.036-.621.329-.623.814-.005,1.063-.012,2.126.006,3.19.005.271-.079.316-.327.313-.948-.015-1.9-.006-2.843-.006s-1.9-.009-2.844.006c-.246,0-.332-.04-.327-.313.019-1.062.01-2.126.006-3.19a.723.723,0,0,0-.554-.8c-.482-.088-.828.221-.831.764-.006,1.063-.014,2.126.006,3.19.005.292-.071.366-.358.355-.612-.023-1.225-.013-1.838,0-.177,0-.236-.041-.235-.229.01-1.26-.025-2.52.016-3.779a6.74,6.74,0,0,1,5.952-6.476,7.617,7.617,0,0,1,.8-.059h.041a6.878,6.878,0,0,1,6.4,3.938,5.635,5.635,0,0,1,.589,2.366c.026,1.328.006,2.658.023,3.987C187.086,419.717,187,419.739,186.8,419.735Z" transform="translate(-55.625 -158.798)" fill="#ffae3b"/>
    <path id="Trazado_235" data-name="Trazado 235" d="M139.006,241.6a2.892,2.892,0,0,1-2.968,2.955c-.715.009-6.005.005-7.793,0a4.241,4.241,0,0,0-.855-1.334,1.2,1.2,0,0,1,.363-.054c.786,0,7.446,0,8.232,0a1.517,1.517,0,0,0,1.636-1.646q0-5.844,0-11.689a1.516,1.516,0,0,0-1.636-1.647q-12.731,0-25.461,0a1.513,1.513,0,0,0-1.626,1.622q0,5.861,0,11.724a1.518,1.518,0,0,0,1.646,1.637c.358,0,.717.016,1.074,0a.92.92,0,0,1,.85.423c.9,1.228,1.819,2.447,2.731,3.669.048.064.1.13.145.194.071.093.145.192.283.154.163-.045.146-.188.148-.313q.029-1.629.054-3.259c.01-.618.252-.862.868-.863,1.434,0,2.867,0,4.3,0a.8.8,0,0,0,.312-.051,4.25,4.25,0,0,0-.957,1.437c-1,0-1.977.005-2.951-.005-.194,0-.192.093-.195.233-.011.843-.028,1.687-.043,2.531a1.594,1.594,0,0,1-2.929.966q-1.313-1.743-2.608-3.5a.486.486,0,0,0-.455-.229,4,4,0,0,1-2.032-.3,2.834,2.834,0,0,1-1.627-2.656q-.02-5.913,0-11.827a2.875,2.875,0,0,1,2.127-2.864c.076-.025.194,0,.229-.113h26.713a5.315,5.315,0,0,1,1.232.555,2.89,2.89,0,0,1,1.193,2.387Q139.019,235.673,139.006,241.6Z" fill="#ffd489"/>
    <path id="Trazado_236" data-name="Trazado 236" d="M213.966,319.642a1.089,1.089,0,0,1-1.092-1.075,1.1,1.1,0,0,1,1.071-1.1,1.126,1.126,0,0,1,1.129,1.108A1.113,1.113,0,0,1,213.966,319.642Z" transform="translate(-98.301 -83.19)" fill="#ffae3b"/>
    <path id="Trazado_237" data-name="Trazado 237" d="M260.5,319.654a1.089,1.089,0,1,1-.029-2.176,1.088,1.088,0,0,1,.029,2.176Z" transform="translate(-139.514 -83.2)" fill="#ffae3b"/>
    <path id="Trazado_238" data-name="Trazado 238" d="M303.277,318.532a1.077,1.077,0,0,1-1.058,1.1,1.1,1.1,0,0,1-1.127-1.1,1.118,1.118,0,0,1,1.095-1.082A1.091,1.091,0,0,1,303.277,318.532Z" transform="translate(-176.489 -83.18)" fill="#ffae3b"/>
    <path id="Trazado_239" data-name="Trazado 239" d="M347.8,319.657a1.065,1.065,0,0,1-1.009-1.14,1.085,1.085,0,1,1,2.165.148A1.067,1.067,0,0,1,347.8,319.657Z" transform="translate(-216.988 -83.21)" fill="#ffae3b"/>
  </g>
</svg>
