<svg xmlns="http://www.w3.org/2000/svg" xmlns:xlink="http://www.w3.org/1999/xlink" width="15" height="15" viewBox="0 0 15 15">
  <defs>
    <rect id="rect-1" width="15" height="15" x="0" y="0"/>
    <mask id="mask-2" maskContentUnits="userSpaceOnUse" maskUnits="userSpaceOnUse">
      <rect width="15" height="15" x="0" y="0" fill="black"/>
      <use fill="white" xlink:href="#rect-1"/>
    </mask>
  </defs>
  <g>
    <use fill="none" xlink:href="#rect-1"/>
    <g mask="url(#mask-2)">
      <path fill="rgb(255,174,59)" fill-rule="evenodd" d="M0 7.5C0 3.3562622 3.35624695 0 7.5 0c4.13749695.0062561 7.4937439 3.3624878 7.5 7.5 0 4.1437378-3.35624695 7.5-7.5 7.5S0 11.6437378 0 7.5zm1.25 0c0 3.4500122 2.80000305 6.25 6.25 6.25 3.44999695-.0062561 6.2437439-2.7999878 6.25-6.25 0-3.4500122-2.80000305-6.25-6.25-6.25S1.25 4.0499878 1.25 7.5z"/>
      <path fill="rgb(255,174,59)" fill-rule="evenodd" d="M7.5 3.75c-.34375 0-.625.28125-.625.625v2.7L4.76875 8.39375c-.29375.18125-.38125.56875-.2.8625.18125.29375.56875.38125.8625.2l2.4-1.5c.1875-.1125.29375-.31875.29375-.5375V4.375c0-.34375-.28125-.625-.625-.625z"/>
    </g>
  </g>
</svg>
