<svg xmlns="http://www.w3.org/2000/svg" xmlns:xlink="http://www.w3.org/1999/xlink" width="36.756" height="32.304" viewBox="0 0 36.756 32.304">
  <defs>
    <rect id="rect-1" width="32.051" height="27.599" x="2.352" y="2.352"/>
    <path id="path-2" fill-rule="evenodd" d="M33.05229674 4.33479796c.30996705-.08312988.64102173-.01245117.89001465.19000245.27740479.17773437.4494629.48071289.45999146.80999755V25.8247882c.02078247.45361328-.26669312.86425781-.6999817 1l-10 3.11999512c-.25845336.02355957-.51882934-.01409912-.76000976-.10998536l-9.58999634-4.9199829-9.61999511 3.94995117c-.3076477.1264038-.6579895.09155273-.9347229-.09289551-.2767334-.18450928-.44363404-.49450684-.44528199-.8270874V7.46480285c-.00204467-.40734864.24319458-.77520752.61999512-.92999268l10-4.09002685c.26641846-.12329102.57357788-.12329102.83999634 0l9.63000488 4.89001464 9.60998535-3zm-9.019989 23.35003663l8.32000731-2.60003663V6.69484436l-8.32000732 2.6399536v1.86999512h-1.6000061V9.1048175l-8.3999939-4.2999878v2.33996582h-1.6000061V4.79481994L4.35231505 8.12483703v18.32000732l8.07998658-3.33001709v-1.72003174h1.6000061v1.69000244l8.3999939 4.30999756v-2h1.6000061v2.29003907z"/>
    <mask id="mask-3" x="0" y="0" maskContentUnits="userSpaceOnUse" maskUnits="userSpaceOnUse">
      <rect width="36.756" height="32.304" x="0" y="0" fill="white"/>
      <use fill="black" xlink:href="#path-2"/>
    </mask>
  </defs>
  <g>
    <g>
      <use fill="rgb(132,132,132)" xlink:href="#path-2"/>
      <use fill-opacity="0" stroke="rgb(128,128,128)" stroke-linecap="butt" stroke-linejoin="miter" stroke-width="1" mask="url(#mask-3)" xlink:href="#path-2"/>
    </g>
    <path fill="rgb(132,132,132)" fill-rule="evenodd" d="M22.43231505 13.39480334h1.6v3.81h-1.6v-3.81z"/>
    <path fill="rgb(132,132,132)" fill-rule="evenodd" d="M22.43231505 19.39480334h1.6v3.81h-1.6v-3.81z"/>
    <path fill="rgb(132,132,132)" fill-rule="evenodd" d="M12.43231505 9.39480334h1.6v3.81h-1.6v-3.81z"/>
    <path fill="rgb(132,132,132)" fill-rule="evenodd" d="M12.43231505 15.46480334h1.6v3.75h-1.6v-3.75z"/>
  </g>
</svg>
