<svg width="33" height="28" viewBox="0 0 33 28" fill="none" xmlns="http://www.w3.org/2000/svg">
<path fill-rule="evenodd" clip-rule="evenodd" d="M31.0523 2.33502C31.3623 2.25189 31.6933 2.32257 31.9423 2.52502C32.2197 2.70276 32.3918 3.00574 32.4023 3.33502V23.825C32.4231 24.2786 32.1356 24.6893 31.7023 24.825L21.7023 27.945C21.4439 27.9686 21.1835 27.9309 20.9423 27.835L11.3523 22.915L1.73231 26.865C1.42466 26.9914 1.07432 26.9565 0.79759 26.7721C0.520856 26.5876 0.353956 26.2776 0.352308 25.945V5.46503C0.350263 5.05768 0.595502 4.68982 0.972303 4.53503L10.9723 0.445007C11.2387 0.321716 11.5459 0.321716 11.8123 0.445007L21.4423 5.33502L31.0523 2.33502V2.33502ZM22.0323 25.6851L30.3523 23.085V4.69507L22.0323 7.33502V9.20502H20.4323V7.10504L12.0323 2.80505V5.14502H10.4323V2.79504L2.35231 6.12506V24.4451L10.4323 21.1151V19.395H12.0323V21.085L20.4323 25.395V23.395H22.0323V25.6851V25.6851Z" fill="#FFAE3B"/>
<path fill-rule="evenodd" clip-rule="evenodd" d="M31.0523 2.33502C31.3623 2.25189 31.6933 2.32257 31.9423 2.52502C32.2197 2.70276 32.3918 3.00574 32.4023 3.33502V23.825C32.4231 24.2786 32.1356 24.6893 31.7023 24.825L21.7023 27.945C21.4439 27.9686 21.1835 27.9309 20.9423 27.835L11.3523 22.915L1.73231 26.865C1.42466 26.9914 1.07432 26.9565 0.79759 26.7721C0.520856 26.5876 0.353956 26.2776 0.352308 25.945V5.46503C0.350263 5.05768 0.595502 4.68982 0.972303 4.53503L10.9723 0.445007C11.2387 0.321716 11.5459 0.321716 11.8123 0.445007L21.4423 5.33502L31.0523 2.33502V2.33502ZM22.0323 25.6851L30.3523 23.085V4.69507L22.0323 7.33502V9.20502H20.4323V7.10504L12.0323 2.80505V5.14502H10.4323V2.79504L2.35231 6.12506V24.4451L10.4323 21.1151V19.395H12.0323V21.085L20.4323 25.395V23.395H22.0323V25.6851V25.6851Z" fill="#FFAE3B"/>
<path fill-rule="evenodd" clip-rule="evenodd" d="M31.0523 2.33502C31.3623 2.25189 31.6933 2.32257 31.9423 2.52502C32.2197 2.70276 32.3918 3.00574 32.4023 3.33502V23.825C32.4231 24.2786 32.1356 24.6893 31.7023 24.825L21.7023 27.945C21.4439 27.9686 21.1835 27.9309 20.9423 27.835L11.3523 22.915L1.73231 26.865C1.42466 26.9914 1.07432 26.9565 0.79759 26.7721C0.520856 26.5876 0.353956 26.2776 0.352308 25.945V5.46503C0.350263 5.05768 0.595502 4.68982 0.972303 4.53503L10.9723 0.445007C11.2387 0.321716 11.5459 0.321716 11.8123 0.445007L21.4423 5.33502L31.0523 2.33502V2.33502ZM22.0323 25.6851L30.3523 23.085V4.69507L22.0323 7.33502V9.20502H20.4323V7.10504L12.0323 2.80505V5.14502H10.4323V2.79504L2.35231 6.12506V24.4451L10.4323 21.1151V19.395H12.0323V21.085L20.4323 25.395V23.395H22.0323V25.6851V25.6851Z" fill="#FFAE3B"/>
<path fill-rule="evenodd" clip-rule="evenodd" d="M31.0523 2.33502C31.3623 2.25189 31.6933 2.32257 31.9423 2.52502C32.2197 2.70276 32.3918 3.00574 32.4023 3.33502V23.825C32.4231 24.2786 32.1356 24.6893 31.7023 24.825L21.7023 27.945C21.4439 27.9686 21.1835 27.9309 20.9423 27.835L11.3523 22.915L1.73231 26.865C1.42466 26.9914 1.07432 26.9565 0.79759 26.7721C0.520856 26.5876 0.353956 26.2776 0.352308 25.945V5.46503C0.350263 5.05768 0.595502 4.68982 0.972303 4.53503L10.9723 0.445007C11.2387 0.321716 11.5459 0.321716 11.8123 0.445007L21.4423 5.33502L31.0523 2.33502V2.33502ZM22.0323 25.6851L30.3523 23.085V4.69507L22.0323 7.33502V9.20502H20.4323V7.10504L12.0323 2.80505V5.14502H10.4323V2.79504L2.35231 6.12506V24.4451L10.4323 21.1151V19.395H12.0323V21.085L20.4323 25.395V23.395H22.0323V25.6851V25.6851Z" fill="#FFAE3B"/>
<path fill-rule="evenodd" clip-rule="evenodd" d="M31.0523 2.33502C31.3623 2.25189 31.6933 2.32257 31.9423 2.52502C32.2197 2.70276 32.3918 3.00574 32.4023 3.33502V23.825C32.4231 24.2786 32.1356 24.6893 31.7023 24.825L21.7023 27.945C21.4439 27.9686 21.1835 27.9309 20.9423 27.835L11.3523 22.915L1.73231 26.865C1.42466 26.9914 1.07432 26.9565 0.79759 26.7721C0.520856 26.5876 0.353956 26.2776 0.352308 25.945V5.46503C0.350263 5.05768 0.595502 4.68982 0.972303 4.53503L10.9723 0.445007C11.2387 0.321716 11.5459 0.321716 11.8123 0.445007L21.4423 5.33502L31.0523 2.33502V2.33502ZM22.0323 25.6851L30.3523 23.085V4.69507L22.0323 7.33502V9.20502H20.4323V7.10504L12.0323 2.80505V5.14502H10.4323V2.79504L2.35231 6.12506V24.4451L10.4323 21.1151V19.395H12.0323V21.085L20.4323 25.395V23.395H22.0323V25.6851V25.6851Z" fill="#FFAE3B"/>
<path fill-rule="evenodd" clip-rule="evenodd" d="M31.0523 2.33502C31.3623 2.25189 31.6933 2.32257 31.9423 2.52502C32.2197 2.70276 32.3918 3.00574 32.4023 3.33502V23.825C32.4231 24.2786 32.1356 24.6893 31.7023 24.825L21.7023 27.945C21.4439 27.9686 21.1835 27.9309 20.9423 27.835L11.3523 22.915L1.73231 26.865C1.42466 26.9914 1.07432 26.9565 0.79759 26.7721C0.520856 26.5876 0.353956 26.2776 0.352308 25.945V5.46503C0.350263 5.05768 0.595502 4.68982 0.972303 4.53503L10.9723 0.445007C11.2387 0.321716 11.5459 0.321716 11.8123 0.445007L21.4423 5.33502L31.0523 2.33502V2.33502ZM22.0323 25.6851L30.3523 23.085V4.69507L22.0323 7.33502V9.20502H20.4323V7.10504L12.0323 2.80505V5.14502H10.4323V2.79504L2.35231 6.12506V24.4451L10.4323 21.1151V19.395H12.0323V21.085L20.4323 25.395V23.395H22.0323V25.6851V25.6851Z" fill="#FFAE3B"/>
<path fill-rule="evenodd" clip-rule="evenodd" d="M31.0523 2.33502C31.3623 2.25189 31.6933 2.32257 31.9423 2.52502C32.2197 2.70276 32.3918 3.00574 32.4023 3.33502V23.825C32.4231 24.2786 32.1356 24.6893 31.7023 24.825L21.7023 27.945C21.4439 27.9686 21.1835 27.9309 20.9423 27.835L11.3523 22.915L1.73231 26.865C1.42466 26.9914 1.07432 26.9565 0.79759 26.7721C0.520856 26.5876 0.353956 26.2776 0.352308 25.945V5.46503C0.350263 5.05768 0.595502 4.68982 0.972303 4.53503L10.9723 0.445007C11.2387 0.321716 11.5459 0.321716 11.8123 0.445007L21.4423 5.33502L31.0523 2.33502V2.33502ZM22.0323 25.6851L30.3523 23.085V4.69507L22.0323 7.33502V9.20502H20.4323V7.10504L12.0323 2.80505V5.14502H10.4323V2.79504L2.35231 6.12506V24.4451L10.4323 21.1151V19.395H12.0323V21.085L20.4323 25.395V23.395H22.0323V25.6851V25.6851Z" fill="#FFAE3B"/>
<path fill-rule="evenodd" clip-rule="evenodd" d="M31.0523 2.33502C31.3623 2.25189 31.6933 2.32257 31.9423 2.52502C32.2197 2.70276 32.3918 3.00574 32.4023 3.33502V23.825C32.4231 24.2786 32.1356 24.6893 31.7023 24.825L21.7023 27.945C21.4439 27.9686 21.1835 27.9309 20.9423 27.835L11.3523 22.915L1.73231 26.865C1.42466 26.9914 1.07432 26.9565 0.79759 26.7721C0.520856 26.5876 0.353956 26.2776 0.352308 25.945V5.46503C0.350263 5.05768 0.595502 4.68982 0.972303 4.53503L10.9723 0.445007C11.2387 0.321716 11.5459 0.321716 11.8123 0.445007L21.4423 5.33502L31.0523 2.33502V2.33502ZM22.0323 25.6851L30.3523 23.085V4.69507L22.0323 7.33502V9.20502H20.4323V7.10504L12.0323 2.80505V5.14502H10.4323V2.79504L2.35231 6.12506V24.4451L10.4323 21.1151V19.395H12.0323V21.085L20.4323 25.395V23.395H22.0323V25.6851V25.6851Z" fill="#FFAE3B"/>
<path fill-rule="evenodd" clip-rule="evenodd" d="M20.4324 11.3955H22.0324V15.2055H20.4324V11.3955V11.3955Z" fill="#FFAE3B"/>
<path fill-rule="evenodd" clip-rule="evenodd" d="M20.4324 11.3955H22.0324V15.2055H20.4324V11.3955V11.3955Z" fill="#FFAE3B"/>
<path fill-rule="evenodd" clip-rule="evenodd" d="M20.4324 17.3955H22.0324V21.2055H20.4324V17.3955Z" fill="#FFAE3B"/>
<path fill-rule="evenodd" clip-rule="evenodd" d="M20.4324 17.3955H22.0324V21.2055H20.4324V17.3955Z" fill="#FFAE3B"/>
<path fill-rule="evenodd" clip-rule="evenodd" d="M10.4324 7.39551H12.0324V11.2055H10.4324V7.39551Z" fill="#FFAE3B"/>
<path fill-rule="evenodd" clip-rule="evenodd" d="M10.4324 7.39551H12.0324V11.2055H10.4324V7.39551Z" fill="#FFAE3B"/>
<path fill-rule="evenodd" clip-rule="evenodd" d="M10.4324 13.4648H12.0324V17.2148H10.4324V13.4648Z" fill="#FFAE3B"/>
<path fill-rule="evenodd" clip-rule="evenodd" d="M10.4324 13.4648H12.0324V17.2148H10.4324V13.4648Z" fill="#FFAE3B"/>
<path fill-rule="evenodd" clip-rule="evenodd" d="M31.0523 2.33502C31.3623 2.25189 31.6933 2.32257 31.9423 2.52502C32.2197 2.70276 32.3918 3.00574 32.4023 3.33502V23.825C32.4231 24.2786 32.1356 24.6893 31.7023 24.825L21.7023 27.945C21.4439 27.9686 21.1835 27.9309 20.9423 27.835L11.3523 22.915L1.73231 26.865C1.42466 26.9914 1.07432 26.9565 0.79759 26.7721C0.520856 26.5876 0.353956 26.2776 0.352308 25.945V5.46503C0.350263 5.05768 0.595502 4.68982 0.972303 4.53503L10.9723 0.445007C11.2387 0.321716 11.5459 0.321716 11.8123 0.445007L21.4423 5.33502L31.0523 2.33502V2.33502ZM22.0323 25.6851L30.3523 23.085V4.69507L22.0323 7.33502V9.20502H20.4323V7.10504L12.0323 2.80505V5.14502H10.4323V2.79504L2.35231 6.12506V24.4451L10.4323 21.1151V19.395H12.0323V21.085L20.4323 25.395V23.395H22.0323V25.6851V25.6851Z" fill="#FFAE3B"/>
<path fill-rule="evenodd" clip-rule="evenodd" d="M31.0523 2.33502C31.3623 2.25189 31.6933 2.32257 31.9423 2.52502C32.2197 2.70276 32.3918 3.00574 32.4023 3.33502V23.825C32.4231 24.2786 32.1356 24.6893 31.7023 24.825L21.7023 27.945C21.4439 27.9686 21.1835 27.9309 20.9423 27.835L11.3523 22.915L1.73231 26.865C1.42466 26.9914 1.07432 26.9565 0.79759 26.7721C0.520856 26.5876 0.353956 26.2776 0.352308 25.945V5.46503C0.350263 5.05768 0.595502 4.68982 0.972303 4.53503L10.9723 0.445007C11.2387 0.321716 11.5459 0.321716 11.8123 0.445007L21.4423 5.33502L31.0523 2.33502V2.33502ZM22.0323 25.6851L30.3523 23.085V4.69507L22.0323 7.33502V9.20502H20.4323V7.10504L12.0323 2.80505V5.14502H10.4323V2.79504L2.35231 6.12506V24.4451L10.4323 21.1151V19.395H12.0323V21.085L20.4323 25.395V23.395H22.0323V25.6851V25.6851Z" fill="#FFAE3B"/>
<path fill-rule="evenodd" clip-rule="evenodd" d="M31.0523 2.33502C31.3623 2.25189 31.6933 2.32257 31.9423 2.52502C32.2197 2.70276 32.3918 3.00574 32.4023 3.33502V23.825C32.4231 24.2786 32.1356 24.6893 31.7023 24.825L21.7023 27.945C21.4439 27.9686 21.1835 27.9309 20.9423 27.835L11.3523 22.915L1.73231 26.865C1.42466 26.9914 1.07432 26.9565 0.79759 26.7721C0.520856 26.5876 0.353956 26.2776 0.352308 25.945V5.46503C0.350263 5.05768 0.595502 4.68982 0.972303 4.53503L10.9723 0.445007C11.2387 0.321716 11.5459 0.321716 11.8123 0.445007L21.4423 5.33502L31.0523 2.33502V2.33502ZM22.0323 25.6851L30.3523 23.085V4.69507L22.0323 7.33502V9.20502H20.4323V7.10504L12.0323 2.80505V5.14502H10.4323V2.79504L2.35231 6.12506V24.4451L10.4323 21.1151V19.395H12.0323V21.085L20.4323 25.395V23.395H22.0323V25.6851V25.6851Z" fill="#FFAE3B"/>
<path fill-rule="evenodd" clip-rule="evenodd" d="M31.0523 2.33502C31.3623 2.25189 31.6933 2.32257 31.9423 2.52502C32.2197 2.70276 32.3918 3.00574 32.4023 3.33502V23.825C32.4231 24.2786 32.1356 24.6893 31.7023 24.825L21.7023 27.945C21.4439 27.9686 21.1835 27.9309 20.9423 27.835L11.3523 22.915L1.73231 26.865C1.42466 26.9914 1.07432 26.9565 0.79759 26.7721C0.520856 26.5876 0.353956 26.2776 0.352308 25.945V5.46503C0.350263 5.05768 0.595502 4.68982 0.972303 4.53503L10.9723 0.445007C11.2387 0.321716 11.5459 0.321716 11.8123 0.445007L21.4423 5.33502L31.0523 2.33502V2.33502ZM22.0323 25.6851L30.3523 23.085V4.69507L22.0323 7.33502V9.20502H20.4323V7.10504L12.0323 2.80505V5.14502H10.4323V2.79504L2.35231 6.12506V24.4451L10.4323 21.1151V19.395H12.0323V21.085L20.4323 25.395V23.395H22.0323V25.6851V25.6851Z" fill="#FFAE3B"/>
<path fill-rule="evenodd" clip-rule="evenodd" d="M20.4324 11.3955H22.0324V15.2055H20.4324V11.3955V11.3955Z" fill="#FFAE3B"/>
<path fill-rule="evenodd" clip-rule="evenodd" d="M20.4324 11.3955H22.0324V15.2055H20.4324V11.3955V11.3955Z" fill="#FFAE3B"/>
<path fill-rule="evenodd" clip-rule="evenodd" d="M20.4324 17.3955H22.0324V21.2055H20.4324V17.3955Z" fill="#FFAE3B"/>
<path fill-rule="evenodd" clip-rule="evenodd" d="M20.4324 17.3955H22.0324V21.2055H20.4324V17.3955Z" fill="#FFAE3B"/>
<path fill-rule="evenodd" clip-rule="evenodd" d="M10.4324 7.39551H12.0324V11.2055H10.4324V7.39551Z" fill="#FFAE3B"/>
<path fill-rule="evenodd" clip-rule="evenodd" d="M10.4324 7.39551H12.0324V11.2055H10.4324V7.39551Z" fill="#FFAE3B"/>
<path fill-rule="evenodd" clip-rule="evenodd" d="M10.4324 13.4648H12.0324V17.2148H10.4324V13.4648Z" fill="#FFAE3B"/>
<path fill-rule="evenodd" clip-rule="evenodd" d="M10.4324 13.4648H12.0324V17.2148H10.4324V13.4648Z" fill="#FFAE3B"/>
</svg>
