<svg xmlns="http://www.w3.org/2000/svg" width="20.1" height="23.5" viewBox="0 0 20.1 23.5">
  <g>
    <path fill="rgb(0,0,0)" fill-rule="evenodd" d="M11.66108398 8.49029541l-.15344238-.15161133c-.15344238 0-.15344238 0-.15344238.15161133v.15161133l.15344238.15161133c0-.03521729.00827027-.06219483.02096558-.0848999.04147339-.00347901.0869751-.02172852.13244629-.06671143 0-.03204346-.00683594-.05731201-.01623535-.07580567.00997924-.02075195.01626586-.04516601.01626586-.07580566zm-.03790283.10992432c.00976563.0123291.0222168.02624511.03787232.041687l-.0517273-.02551269c.00482178-.00518799.00946045-.01055908.01385498-.01617431zm0 0c.00820923-.01037598.01559448-.02160645.02163697-.03411866-.03039551-.06005859-.08724976-.04870605-.02163697.03411866zm-.01382446.01617431c-.25515747-.12554931-.25515747-.11706543-.25515747.0255127 0 0 .07595825.0750122.17440796.06671142.02069092-.03686523.0531311-.06213379.0807495-.09222412z"/>
    <path fill="rgb(0,0,0)" fill-rule="evenodd" d="M11.46714478 8.53527832c.01013183-.01312256.02340698-.0281372.04049682-.04498291 0 .03204346-.00686645.05731201-.01623535.07580566-.00723267-.01434326-.01602173-.02459716-.02426147-.03082275zm-.02001954.03082275c.00445557-.00872802.01095581-.01898193.02005005-.03076171-.02081299-.01568604-.0383606-.00543213-.02005005.03076171zm.02001954.03082276c.00823974-.00622559.0170288-.0164795.02426147-.03082276.0093689.01849366.01623535.04376221.01623535.07580567-.01708984-.0168457-.03036499-.03186035-.04049682-.04498291zm.00003051 0c-.00909424-.01177979-.01559448-.02209473-.02005005-.03082276-.01831054.03619385-.00076294.04644776.02005005.03082276z"/>
    <path fill="rgb(35,31,32)" fill-rule="evenodd" d="M19.33282443 7.88387097c0 .1516129 0 .1516129 0 0-.61374046.4548387-1.22748092.90967742-1.53435115 1.36451613-.61374046.75806451-.92061068 1.51612903-1.0740458 2.42580645-.15343511.90967742 0 1.66774193.30687023 2.42580645.30687023.90967742 1.0740458 1.66774194 1.84122137 2.42580645.30687023.3032258.61374046.45483871 1.0740458.60645161.15343512 0 .15343512 0 0 .1516129-.46030534 1.21290323-.92061068 2.27419356-1.68778625 3.33548388-.30687023.4548387-.61374046.90967742-.9206107 1.21290322-.30687022.30322581-.61374045.60645162-1.0740458.90967742-.76717557.45483871-1.53435114.75806452-2.45496182.45483871-.46030535-.1516129-.76717558-.1516129-1.22748092-.3032258-.30687023 0-.76717557-.1516129-1.22748092-.3032258-.76717557-.15161291-1.38091603 0-2.1480916.1516129-.30687023.1516129-.76717557.1516129-1.0740458.3032258L6.75114504 23.5c-.46030535 0-.76717557 0-1.0740458-.1516129-.46030535-.1516129-.92061069-.45483871-1.22748092-.75806452-.46030534-.3032258-.92061069-.90967742-1.38091603-1.36451613-1.22748092-1.51612903-2.1480916-3.18387097-2.60839695-5.1548387C.15343511 15.00967741 0 13.79677418 0 12.58387096c0-1.06129032.15343511-2.27419355.61374046-3.33548387.61374046-1.36451613 1.53435114-2.42580645 2.76183206-3.03225807.92061069-.3032258 1.84122137-.60645161 2.76183206-.60645161.46030534 0 .92061069.1516129 1.53435115.3032258.46030534.1516129 1.0740458.30322581 1.53435114.60645162.15343511 0 .46030534.1516129.61374046.1516129h.61374046c.61374045-.1516129 1.0740458-.4548387 1.68778626-.60645161.61374045-.1516129 1.22748091-.45483871 1.84122137-.45483871h1.38091603c.76717557.1516129 1.53435115.3032258 2.1480916.60645161.76717558.45483871 1.38091603.90967742 1.84122138 1.66774194z"/>
    <path fill="rgb(35,31,32)" fill-rule="evenodd" d="M15.03664122.45483871c0 1.06129032-.30687023 1.97096774-.92061069 2.88064516C13.50229008 4.0935484 12.88854962 4.7 12.27480916 5.00322581c-.61374046.4548387-1.38091603.6064516-1.99465649.6064516-.15343511 0-.15343511 0-.15343511-.1516129 0-.75806451.15343511-1.51612903.46030534-2.27419354C11.35419847 1.51612903 12.5816794.4548387 14.42290076 0h.46030535c.15343511 0 .15343511 0 .15343511.1516129v.30322581z"/>
  </g>
</svg>
