<svg xmlns="http://www.w3.org/2000/svg" xmlns:xlink="http://www.w3.org/1999/xlink" width="59.342" height="26" viewBox="0 0 59.342 26">
  <defs>
    <rect id="rect-1" width="59.342" height="26" x="0" y="0"/>
    <mask id="mask-2" maskContentUnits="userSpaceOnUse" maskUnits="userSpaceOnUse">
      <rect width="59.342" height="26" x="0" y="0" fill="black"/>
      <use fill="white" xlink:href="#rect-1"/>
    </mask>
  </defs>
  <g>
    <use fill="none" xlink:href="#rect-1"/>
    <g mask="url(#mask-2)">
      <path fill="#ffae3b" fill-rule="evenodd" d="M5.45028687 20.95544434C5.45028687 23.73678589 7.71350097 26 10.49484253 26c2.78134155 0 5.04455566-2.26321411 5.04455566-5.04455566 0-2.78134156-2.2632141-5.04455567-5.04455566-5.04455567-2.78134155 0-5.04455566 2.26321411-5.04455566 5.04455567zm.9776001 0c0-2.24365235 1.8232727-4.06692505 4.06692504-4.06692505 2.24365235 0 4.06692505 1.82815551 4.06692505 4.06692505 0 2.24365234-1.8232727 4.06692504-4.06692505 4.06692504-2.24365234 0-4.06692505-1.8232727-4.06692505-4.06692504z"/>
      <path fill="#ffae3b" fill-rule="evenodd" d="M7.67437744 20.95544434c0 1.55441284 1.26602173 2.82043457 2.82046509 2.82043457 1.55441284 0 2.82043457-1.26602173 2.82043457-2.82043457 0-1.55444336-1.26602173-2.8204651-2.82043457-2.8204651-1.55444336 0-2.82046509 1.26602174-2.82046509 2.8204651zm.97763062.0048828c0-1.01675414.82608032-1.84283446 1.84283447-1.84283446 1.01184082 0 1.84283447.82608032 1.84283447 1.84283447 0 1.01672363-.82611084 1.84283447-1.84283447 1.84283447-1.01675415 0-1.84283447-.82611084-1.84283447-1.84283447z"/>
      <path fill="#ffae3b" fill-rule="evenodd" d="M46.19778442 20.95544434C46.19778442 23.73678589 48.46099854 26 51.2423401 26s5.04455566-2.26321411 5.04455566-5.04455566c0-2.78134156-2.2632141-5.04455567-5.04455566-5.04455567-2.78134155 0-5.04455567 2.26321411-5.04455567 5.04455567zm.97763062 0c0-2.24365235 1.8232727-4.06692505 4.06692505-4.06692505 2.24365234 0 4.06692505 1.82815551 4.06692505 4.06692505 0 2.24365234-1.8232727 4.06692504-4.06692505 4.06692504s-4.06692505-1.8232727-4.06692505-4.06692504z"/>
      <path fill="#ffae3b" fill-rule="evenodd" d="M48.421875 20.95544434c0 1.55441284 1.26602173 2.82043457 2.82046509 2.82043457 1.55441284 0 2.82043457-1.26602173 2.82043457-2.82043457 0-1.55444336-1.26602173-2.8204651-2.82043457-2.8204651-1.55444336 0-2.82046509 1.26602174-2.82046509 2.8204651zm.97763062.0048828c0-1.01675414.82608032-1.84283446 1.84283447-1.84283446 1.01672363 0 1.84283447.82608032 1.84283447 1.84283447 0 1.01672363-.82611084 1.84283447-1.84283447 1.84283447-1.01675415 0-1.84283447-.82611084-1.84283447-1.84283447z"/>
      <path fill="#ffae3b" fill-rule="evenodd" d="M32.58432036 13.57435608h-.79187817c-.97273924 0-1.73528859-.59146456-1.73528859-1.3393495h.97762737c0 .12709156.28840008.36172213.75766122.36172213h.79187817c.46926114 0 .75766122-.23463057.75766122-.36172213h.97762737c0 .74788494-.76254935 1.3393495-1.73528859 1.3393495z"/>
      <path fill="#ffae3b" fill-rule="evenodd" d="M14.56176758 10.3970642l-.63546753.80654908 21.01898193-.26885986v-8.4466858l-.47903442-.00979614c-.54745484-.01953125-13.50592041-.20529174-19.90447998 7.91879273zm1.45178222-.19552611c5.60180665-6.13461304 15.65182496-6.69674683 17.95413208-6.74563599v6.51589966l-17.95413208.22973633z"/>
      <path fill="#ffae3b" fill-rule="evenodd" d="M36.4606018 2.50271606l.04888917 8.4076233 14.04849243-.3079834.13687134-.24438477c.36660766-.66479492.66967773-2.26809692-.8163147-3.55856323-.2835083-.24441528-.60125733-.55236817-.93362427-.87988281-1.54467773-1.50552369-3.66610718-3.56832886-6.54034424-3.56832886-3.26525879 0-5.46005249.12710571-5.47958374.12710571l-.46438598.02441406zm1.01672364 7.41043091l-.0342102-6.48165893c.80166625-.03912354 2.59561157-.10266114 4.95657348-.09777832 2.47827149 0 4.35531616 1.8232727 5.86087036 3.28973388.34216309.33236695.66967774.65011597.9727478.9140625.93850708.8163147.83096314 1.68151856.69900513 2.1018982l-12.45498657.27374267z"/>
      <path fill="#ffae3b" fill-rule="evenodd" d="M58.42301184 14.59597669c-2.92310584-.47903742-4.66328257-3.6318857-4.52641474-5.50893025.12220343-1.68640722 1.40778342-2.33652943 2.07257004-2.44406844l.15642038.96296297-.0782102-.48392555.08309833.48392555c-.11731528.01955254-1.16337657.24929498-1.2611393 1.54953938-.10753902 1.50554616 1.43711223 4.10114684 3.71009587 4.47264524l-.15642038.9678511z"/>
      <path fill="#ffae3b" fill-rule="evenodd" d="M1.15848844 15.26565144c-.10753901 0-.19552548-.00488814-.2639594-.00977628l.06354579-.97762737c.39105095.02444069 2.43429216.04888137 4.7072758-1.8819327C7.4250799 10.90054523 6.99981199 9.4243279 6.98025945 9.3607821l.928746-.29817635c.02932882.08798647.66967475 2.14589209-1.61308516 4.08159429-2.22410228 1.88682083-4.26734349 2.1214514-5.13743185 2.1214514z"/>
      <rect width="25.545" height=".978" x="16.649" y="19.489" fill="#ffae3b" rx="0" ry="0"/>
      <path fill="#ffae3b" fill-rule="evenodd" d="M0 16.736969c0 5.58227538 2.77157593 6.41323852 4.41888428 6.41323852l.51812744.00979614-.0293274-.51327514c-.0048828-.03909302-.17596435-3.6758728 1.8183899-5.78265381.94830322-1.0020752 2.24853515-1.5055542 3.87139892-1.5055542 1.63265992 0 2.95733643.50836181 3.93008423 1.51043701 2.0015564 2.05932617 1.94769287 5.5725708 1.94552613 5.71490478l-.00006104.00421143-.01467895.503479h28.62493896l.01467896-.4741516c.00976562-.29815675.31283569-7.20510865 6.12481689-7.20510865 1.78417969 0 3.15286255.503479 4.06692505 1.49087524 1.44467163 1.56350708 1.32315063 3.87539673 1.3152771 4.02523804l-.00036621.0074768-.04397583.5279236h2.28762817l.0928955-.37149049.00045777-.0020752c.04611206-.2012329 2.50665284-10.9456787-5.2894287-17.15530395-7.82589722-6.23236084-25.41830445-3.89093017-32.26168824-.93850708-1.14382935.48880005-2.35610962 1.10961914-3.6416626 1.75973511-2.84490967 1.4468689-6.07107544 3.08441162-9.17016601 3.63677979C3.36791992 9.32168579 0 12.59674072 0 16.73696899zM21.77175903 3.8909607C25.37921143 2.33654784 32.0319519.9434204 38.57229614.9434204c5.54803467 0 11.01296997 1.0020752 14.4737854 3.75897217 6.53543091 5.20587158 5.36715699 13.88720703 5.02011109 15.78869629h-.47903443c-.02444458-.9092102-.24441528-2.80090332-1.57400512-4.24291992-1.10958863-1.20248414-2.71780396-1.81347657-4.79037476-1.81347657-5.79730225 0-6.87271118 5.93417359-7.0633545 7.67434693H17.44577027c-.04400634-1.15359497-.35684204-4.00827027-2.20944213-5.92440796-1.16827393-1.20248413-2.72756959-1.81350708-4.63885499-1.81350708-1.90637207 0-3.44613647.61102295-4.58505249 1.81350708-1.80374145 1.91125488-2.06280517 4.76593017-2.08724975 5.95864868-1.95526123-.2492981-2.94754028-2.06768799-2.94754028-5.40628052 0-3.6465454 3.05020141-6.54522705 7.77212524-7.38598633 3.24084473-.57678222 6.53546143-2.24853515 9.43899536-3.72476196 1.27093506-.64523315 2.46850586-1.2562561 3.58300781-1.73529053z"/>
    </g>
  </g>
</svg>
