<svg xmlns="http://www.w3.org/2000/svg" width="24.998" height="25.693" viewBox="0 0 24.998 25.693">
  <g>
    <path fill="rgb(233,66,53)" fill-rule="evenodd" d="M1.31821185 7.20414214c.1059925-.29845253.27418584-.56538625.43289564-.83594602.72521177-1.23592822 1.6328422-2.32067767 2.72540162-3.24978551C5.7718489 2.01664657 7.2289667 1.20580403 8.84925715.68365156 10.36076583.19664396 11.9104876 0 13.49144925.09009362c2.60155776.14811055 4.9381343 1.02896393 7.01307674 2.6021156.20529071.15564161.39942433.32662423.60415719.48310262.08702541.06638477.0889779.10543463.00892568.18465007-.87471696.8680227-1.74525001 1.74022932-2.6171777 2.61132023-.30486787.30458894-.6122461.6063886-.91432469.91376682-.06610584.06722156-.10850283.08423614-.19218112.01785137-1.01669111-.80526399-2.16475713-1.32936896-3.44866089-1.5156926-2.21942694-.32188245-4.21933785.21254284-5.96514572 1.62754257-1.1065058.89675225-1.88220347 2.03254545-2.34438651 3.38032363-.00864676.0253824-.02705598.04769662-.04072343.07140546-.02594027.00585748-.04937019-.00027892-.07084761-.01561994-.0404445-.03765523-.07642617-.08005222-.12551742-.10794498-.21337962-.14002166-.40862894-.3040311-.60917789-.46050948-.28841114-.22509457-.5860269-.4376374-.87192769-.66580019-.35814304-.28617972-.72995354-.55450807-1.09172264-.83622495-.25521876-.19887538-.5204789-.38575688-.7740241-.58742154-.24517736-.1949704-.51517928-.3598166-.7335796-.58881617z"/>
    <path fill="rgb(53,167,83)" fill-rule="evenodd" d="M5.59835593 15.2076908c.1637305.42257532.32383495.8468242.54809274 1.24262247 1.11682613 1.97257601 2.77226145 3.23193414 4.9847152 3.75018163.92827107.21756353 1.86574674.22314208 2.80852204.11380246 1.12101004-.13025919 2.17089354-.4638566 3.1315202-1.0629931.15006306.09148826.26581801.22593136.41197608.32355603.22621028.15089983.43122207.33080813.64934346.493144.19580718.14587914.37906261.30877286.57738014.45130486.22091066.1587098.4284328.33499205.64543847.49872256.19469147.14699484.38408331.30235752.58128513.44712094.2192371.16094123.42480674.33889704.64488062.49928042.17460868.12719098.33945489.26916513.51294786.39942432.02064064.01534102.01952493.04016558.00920461.06331657-.37153157.37153157-.78685477.69034582-1.21528757.99158763-1.11375792.78350764-2.33099798 1.35279888-3.64167879 1.71819404-1.51820294.42313317-3.0637408.55646057-4.63438213.4153232-1.92515832-.17293512-3.72005745-.74836276-5.37967669-1.7360454-1.9167905-1.1408139-3.42885703-2.6838414-4.54456744-4.6137415-.04351271-.07503152-.10487678-.14197414-.12049673-.23178883.00753105-.04156022-.038492-.05327518-.04769662-.08563078-.08116793-.13081704-.1575941-.26386551-.20668535-.41058143.0635955-.09371967.15926766-.15396804.24601414-.22063173.38519902-.29566326.7678877-.59495258 1.15643385-.88587407.3556327-.26637586.70206078-.54418776 1.06048275-.80693756.2758594-.20222251.54223526-.41811248.81474753-.62507676.19887538-.15117876.3921722-.30988857.59774185-.4526995.10627142-.07391581.1949704-.17098262.30905178-.23569382.03263453-.0181303.06024837-.04407057.10069287-.03988665z"/>
    <path fill="rgb(66,133,244)" fill-rule="evenodd" d="M20.55473328 21.98592929c.18521118.14447021.36651611.29394531.5492096.44122314.02259826-.01446533.04908752-.02539062.06721496-.0437622.3372345-.3447876.6881256-.67694092.98713684-1.0571289.32354736-.41174317.63204956-.83203126.90846252-1.2800293.24183655-.39190674.4499054-.79797364.65492249-1.20776368.32774353-.65490722.56147766-1.34527588.7600708-2.04840088.10209656-.36151123.17684936-.72888183.24072265-1.09869384.01373291-.02056885.0118866-.04418946.01004029-.06774903-.00212097-.02728271-.00424195-.05444336.01757812-.07702637.02572632-.03424072.02604676-.072937.02636719-.11175537.00015259-.01843261.00032043-.03686523.00318909-.05480957.01304626-.02655029.01133728-.05584716.0096283-.08514404-.00219727-.03771973-.0044098-.07550049.02496337-.10754394.01774597-.04040528.0180359-.08270264.01834107-.125.0001068-.01556397.00021362-.03112793.00119018-.04656983.01705933-.0326538.01405335-.06793213.01104737-.10314941-.00332642-.0390625-.0066681-.07806397.01739501-.11358643.02793885-.05474853.02700806-.1126709.02607728-.17059326-.00044251-.02764893-.00088501-.05535889.0018158-.0826416.0167694-.0413208.01361083-.08477783.01045226-.12823487-.00363159-.04974365-.00724792-.0994873.01911926-.14593505.02624512-.08221436.0252533-.1661377.02426148-.25018311-.00045776-.0392456-.00091553-.07843018.00138855-.11749268.0161438-.19506835.01376343-.39031982.0114441-.57958984-.00148011-.12145996-.00294496-.24041748.0005493-.35534668.00694276.0369873.00431824.07910156.00152589.12384033-.00404358.0649414-.00843811.13549805.01548767.2041626.03068542-.25830078.03347778-.5168457 0-.77514648-.01849366.0199585-.01745606.043396-.0164032.0668335.00028992.00646972.00057983.01300048.00045776.01940917-.00453186-.06622314-.00306701-.13397217-.00157165-.20245361.00213623-.09783936.00430298-.19726563-.0109253-.29632568-.00260925-.03039551-.00209045-.0610962-.0015564-.09179688.00109864-.0645752.00219727-.12921143-.02577209-.19104004-.02363586-.03631592-.02067566-.07611084-.01771545-.11590576.00263977-.03533936.00526428-.07061768-.01074219-.10357666-.00183105-.02020264-.00180054-.04058838-.00177002-.06097412.00006104-.0480957.00012207-.09613037-.02416992-.14099121-.00132751.00030517-.00263977.00073242-.00393677.00115967-.00302124.00091552-.00596618.00183105-.00889587.00164794-.00195313 0-.00474549-.00445556-.00502014-.00726318-.00218201-.0192871-.00146485-.03869629-.00076294-.05810547.00120544-.03283691.00241089-.0656128-.01039124-.09753418-.00210571-.01733398-.00227356-.03497314-.00245666-.0526123-.00039673-.04083252-.00080872-.08166504-.02516175-.11865235-.02159118-.02111816-.0200653-.0472412-.01852417-.07330322.00126648-.02185058.00254822-.04364014-.00964355-.06256103-.00195313-.13079834-.04826355-.25323487-.07279968-.37957764-.05047608-.03253174-.1064911-.03161621-.1620636-.03070068-.00923157.00012207-.01843262.00030517-.02760315.00030517-3.855896-.00030517-7.71151734-.00030517-11.56741333.00024414-.01055908 0-.02124024-.00048828-.03198242-.00097656-.04455567-.00201416-.08979798-.00402832-.12867737.02832031-.00138855 1.20355225-.00334168 2.40740967-.00390625 3.6112671 0 .4119873.00279236.8239746.00445556 1.2359619.03881836.0324707.08395386.03039551.12843323.02832032.01081848-.00048828.02160645-.00097656.03224182-.00097656.35520935.00079345.71043396.00073242 1.06564331.00061035l.35520935-.00006104 1.69499207-.00006103c1.12994385-.00006104 2.25984192-.00012207 3.38986206.00006103.18687439 0 .2002716.01757813.15925598.20025635-.0041809.01837158-.01142883.03515625-.02230835.05047607-.14894104.54919434-.35032654 1.0777588-.62005615 1.57983399-.01226807.03405762-.0245514.0680542-.05438232.0914917-.275589.43432617-.58798218.83843994-.9597931 1.19604492-.27334594.26306152-.57933044.48364258-.8869934.70263672.00195312.0303955.02371215.04516601.04322815.0657959.19525146.2064209.4423828.34783935.65855407.52832031.29594422.24713135.61251831.46942139.9179535.7053833.19747924.15228272.38742065.31439209.58602905.46496582.31407165.23822022.63316345.46972656.93719482.72106934.10794068.0892334.22955322.16259765.34028626.24908447z"/>
    <path fill="rgb(79,135,202)" fill-rule="evenodd" d="M24.70684926 10.55824658c-.06610584.05076482-.13025919-.00669427-.1960861-.00669427-3.90721787.00418392-7.81443574.00362606-11.72165361.00362606-.0019525-.06108514.04407056-.04769662.07809973-.04797555.09762466-.00139463.1949704-.00055785.29259505-.00055785 3.78867364 0 7.5776262-.00027893 11.36629985.00251035.0596905-.00027893.14308986-.0474177.18074508.04909126z"/>
    <path fill="rgb(68,135,225)" fill-rule="evenodd" d="M12.7896674 15.4026612c2.23476796 0 4.46953592-.00027893 6.7045828.00139463.04992805 0 .13276955-.03207667.14169523.042397.00920461.07642616.061643.17432975-.04323378.23485704.01171496-.22342101.01171496-.22342101-.22369994-.22342101-2.14690576 0-4.2935326.00027893-6.44043836-.00251035-.04602305-.00027893-.1252385.04797555-.13890595-.05271732z"/>
    <path fill="rgb(243,206,80)" fill-rule="evenodd" d="M.57235944 16.62799015c.03375024.03263453.05606445.06945298.04825448.11882316-.05996944-.02175635-.04964912-.07196332-.04825448-.11882316z"/>
    <path fill="rgb(69,168,94)" fill-rule="evenodd" d="M1.52015544 18.88507232c.01059925.03151882.1071082.0150621.04769662.08563078-.03375024-.01840923-.04658091-.04881233-.04769662-.08563078z"/>
    <path fill="rgb(99,150,208)" fill-rule="evenodd" d="M18.97265559 17.26115581c.00529962.0443495.00641533.08618863-.05439088.09148826.00585748-.03765523.02287206-.06889512.05439088-.09148826z"/>
    <path fill="rgb(250,187,5)" fill-rule="evenodd" d="M5.5314133 14.95749274c.00669427-.05578552-.00083678-.10682927-.04937018-.14392665.00892568-.10682927-.06331657-.19664396-.0635955-.30179966v-.08144686c.01087818-.0566223-.00892568-.10264536-.04769661-.142532.0011157-.03598167-.0404445-.06889513-.00725212-.10682928-.00083679-.07056868.02594026-.1475527-.04825448-.20027002-.00278927-.0273349-.00557855-.05439088-.00836783-.08172579.00892569-.0990193-.00474177-.19413361-.04741769-.28450615-.02175635-.63985993-.0465809-1.27944092.0555066-1.91567478.07391581-.05132268.04713876-.12802777.04937018-.19720182-.00083678-.01896708-.00167357-.03765523-.00251035-.0566223.0030682-.01785137.00585748-.03570274.00892569-.0535541.0485334-.04769662.05885372-.10655035.0496491-.17098262-.03793415-.04602306.0181303-.08730434.00641534-.13193276.04964912-.0373763.05494874-.08925683.04713877-.14532128.02008279-.16400943.10933962-.31044642.12105458-.47668728-.01255174-.02175635-.03375024-.02454563-.05606445-.02566134-.01840922-.05801694-.0585748-.09288289-.11603388-.10961854-.02203528-.0585748-.0859097-.06582692-.12802777-.09929823-.29454755-.23374133-.59467365-.46023055-.89340512-.68895118-.25800803-.19748074-.51713177-.39384578-.77486088-.5921633-.28004331-.21533211-.55422915-.43875312-.83957209-.64711204-.38017832-.2778119-.74892061-.5698491-1.12379931-.85435525-.11184997-.084794-.21142712-.19050756-.34531237-.24573522-.02370885.03263453-.0535541.0627587-.07001083.09874037-.26107624.56901231-.49342293 1.14946065-.68030443 1.7472025-.04072343.0393288-.061643.08563078-.04992804.1433688-.03960772.15647838-.07893651.31295677-.11854423.46943515-.04769662.0474177-.061643.10487678-.0504859.16958799.0069732.03570273-.03932879.06945297-.00390498.10627141-.0939986.0343081-.03486595.11352354-.04992804.17098262-.00223142.01757244-.00418392.03514488-.00641534.05271732-.04434949.04964911-.0585748.10766606-.04713876.17265619-.00362606.15731517-.0797733.30458894-.06526906.46469338-.0474177.08005223-.05578552.16735657-.04797555.25772911-.0030682.05271732-.0061364.10571356-.00892568.15843088-.05327518.08981469-.0524384.18827613-.04602306.28757436-.01338852.27753296-.0585748.55227665-.06247978.83148318-.01059925.76537735 0 1.52908113.11687066 2.2877642 0 .04518628 0 .09065148-.00027892.13583775.00557855.00474177.0080889.01087818.00948354.01757244-.0030682-.00585748-.00641534-.01171496-.00948354-.01757244-.00892569.07224225-.00920461.14281093.0485334.19887538.0030682.01840922.0061364.03653952.00892568.05494874-.00139463.0666637-.01701458.13527989.02677705.1960861.00920461.02761384.01840923.05522767.0273349.0828415.00027894.0273349.00055786.05466981.00055786.08200472.00334714.05188053-.03012418.11547603.04630199.14392664.0030682.01757244.00585748.03486595.00892568.0524384 0 .02705597.00027893.05411195.00027893.08116792-.01087818.0566223.0092046.10292429.04825447.14281094.00446284.10376107.07224225.19413361.06415335.30040503-.0142253.05829587.0080889.10459785.04825448.14504235.03877093.12970134.07754187.25940267.11659173.389104.01840923.03877094.02231421.08339936.04825448.11882317.00948354.04490734.01450424.09148825.02956633.1344431.08423613.2373674.16345157.4769662.25912374.70959182.123286.29956825.23680954.60387827.40388717.88364265.2142164-.12300707.39635612-.28980578.5921633-.43735848.56315483-.42424888 1.11933647-.85770238 1.67858632-1.28669303.67109981-.51462143 1.34275748-1.028685 2.01413622-1.54274858.003905-.09009362-.05494873-.1637305-.06638477-.24991913z"/>
  </g>
</svg>
