<svg id="Capa_1" data-name="Capa 1" xmlns="http://www.w3.org/2000/svg" viewBox="0 0 1080 1080"><defs><style>.cls-1{fill:#faa819;}.cls-2{fill:#232323;}</style></defs><circle class="cls-1" cx="169.61" cy="575.04" r="10.26"/><path class="cls-2" d="M418.15,579V508.38q0-32.28-16.75-49.47t-46-17.19q-22.35,0-39.08,10.26a61.38,61.38,0,0,0-24.58,27.75q-6.33-18.71-21.26-28.36c-10-6.43-22-10.06-36.24-10.06s-27.58,2.21-39.47,9.35c-12.8,7.67-30.84,22.4-33.91,66.65-.08,1.09,0,2-.11,2.66v30.37a26.26,26.26,0,1,0,15.09-.79v-33c0-18.7,3.74-33.57,14.1-44.64s24.38-16.59,42.08-16.59q23.22,0,36.2,13.88t13,40.42v83.26a7.55,7.55,0,0,0,15.09,0V516.52q0-28,15.54-44.64t42.07-16.59q23.24,0,36.2,13.88t13,40.42v69.18l-14-14-8.11,8.14,25.85,25.76a5.74,5.74,0,0,0,4.06,1.68h0a5.72,5.72,0,0,0,4.07-1.72L440.13,573l-8.18-8ZM184.39,575a14.79,14.79,0,1,1-14.78-14.78A14.8,14.8,0,0,1,184.39,575Z"/><path class="cls-2" d="M561.89,452q-18-10.26-40.27-10.26T481.34,452a73.84,73.84,0,0,0-28.2,28.5q-10.26,18.25-10.26,41.17t10.26,41.18a73.87,73.87,0,0,0,28.2,28.51q18,10.24,40.28,10.25t40.27-10.25a73.93,73.93,0,0,0,28.2-28.51q10.24-18.24,10.26-41.18t-10.26-41.17A73.91,73.91,0,0,0,561.89,452Zm14.78,104.07A60.75,60.75,0,0,1,554,579.57a66.51,66.51,0,0,1-64.85,0,60.66,60.66,0,0,1-22.62-23.52q-8.31-15.09-8.3-34.4t8.3-34.38a60.68,60.68,0,0,1,22.62-23.53,66.44,66.44,0,0,1,64.85,0,60.78,60.78,0,0,1,22.63,23.53Q585,502.35,585,521.65T576.67,556.05Z"/><path class="cls-2" d="M929.65,442.92a7,7,0,0,0-6.39,4.15L862.07,583.8,801,447.23a7.28,7.28,0,1,0-13.27,6l66.24,146.58-8.44,19q-6.93,15.38-15.08,21.72a31.05,31.05,0,0,1-19.6,6.33,39.15,39.15,0,0,1-23.82-7.6,6.85,6.85,0,0,0-8.3,10.9,44.8,44.8,0,0,0,11.45,6.36,57,57,0,0,0,20.35,3.61q16.29,0,28.22-8.74t20.95-29.57l76.38-169A7,7,0,0,0,929.65,442.92Z"/><path class="cls-2" d="M769.16,480.48A73.77,73.77,0,0,0,741,452Q723,441.72,700.69,441.72T660.42,452a73.38,73.38,0,0,0-23.08,20.56v-45a7.66,7.66,0,0,0-15.32,0v92c0,.7-.06,1.39-.06,2.1q0,22.94,10.25,41.18a73.89,73.89,0,0,0,28.21,28.51q17.94,10.24,40.27,10.25T741,591.34a73.8,73.8,0,0,0,28.2-28.51q10.26-18.24,10.26-41.18T769.16,480.48Zm-13.41,75.57a60.7,60.7,0,0,1-22.64,23.52Q718.8,588,700.69,588t-32.42-8.44a60.61,60.61,0,0,1-22.63-23.52q-8.31-15.09-8.3-34.4t8.3-34.38a60.64,60.64,0,0,1,22.63-23.53,66.42,66.42,0,0,1,64.84,0,60.73,60.73,0,0,1,22.64,23.53Q764,502.35,764,521.65T755.75,556.05Z"/></svg>