<svg xmlns="http://www.w3.org/2000/svg" xmlns:xlink="http://www.w3.org/1999/xlink" width="1080" height="1080" viewBox="0 0 1080 1080">
  <defs>
    <rect id="rect-1" width="1080" height="1080" x="0" y="0"/>
    <rect id="rect-2" width="1080" height="1080" x="0" y="0"/>
    <mask id="mask-3" maskContentUnits="userSpaceOnUse" maskUnits="userSpaceOnUse">
      <rect width="1080" height="1080" x="0" y="0" fill="black"/>
      <use fill="white" xlink:href="#rect-2"/>
    </mask>
  </defs>
  <g>
    <use fill="none" xlink:href="#rect-2"/>
    <g mask="url(#mask-3)">
      <ellipse cx="169.61" cy="575.04" fill="rgb(250,168,25)" rx="10.26" ry="10.26"/>
      <path fill="rgb(251,169,25)" fill-rule="evenodd" d="M418.1499939 508.38000488V579l13.8000183-14 8.17999268 8-25.13998413 25.63000488c-1.0715332 1.09533692-2.53771972 1.71496582-4.07000732 1.7199707-1.52258301.0006714-2.98306275-.6036682-4.05999756-1.67999267l-25.8500061-25.75997925 8.1100006-8.14001465 13.99998475 14.00001526v-69.18000793c-.03997803-26.53999329-12.99998474-40.41999817-12.99998474-40.41999817-12.96000672-13.88000488-36.19999695-13.88000488-36.19999695-13.88000488-26.52999878-.04999543-42.07000733 16.5900116-42.07000733 16.5900116-15.53999328 16.63998412-15.53999328 44.63998412-15.53999328 44.63998412v76.36001587c-.14784241 4.06011963-3.48216248 7.27526856-7.54499817 7.27526856-4.06285095 0-7.39717102-3.21514893-7.54501343-7.27526856v-83.26000976c-.01998901-26.53999329-13-40.41999817-13-40.41999817-12.97999573-13.87999726-36.19998169-13.87999726-36.19998169-13.87999726-17.7000122 0-31.72001648 5.51999665-42.08001709 16.59000397-10.35998535 11.06999207-14.09999084 25.94000244-14.09999084 44.63998413v33c12.65623474 3.09094239 21.13270569 14.99380493 19.91487121 27.96496582-1.21784973 12.9711609-11.76174927 23.08825684-24.77212524 23.76937867-13.0104065.68112182-24.55307007-8.2796631-27.11868286-21.05274964-2.5656128-12.77308655 4.62164306-25.4960022 16.88592529-29.8915863v-30.36999512c.11001587-.66000366.02999878-1.57000732.11001587-2.66000366 3.0699768-44.25 21.10998535-58.97999573 33.9099884-66.65000153 11.8899994-7.13999939 25.22999573-9.34999847 39.47000122-9.34999847 14.2400055 0 26.2400055 3.62999725 36.2400055 10.05999756 14.92999267 9.6499939 21.2599945 28.3600006 21.2599945 28.3600006 5.13746643-11.56225585 13.72244263-21.25440978 24.58000183-27.75 16.72999573-10.2599945 39.08000184-10.2599945 39.08000184-10.2599945 29.25 0 45.99998474 17.19000244 45.99998474 17.19000244 16.75 17.19000244 16.75 49.47000122 16.75 49.47000122zm-242.8854828 80.29226685c5.52755738-2.29177857 9.12953187-7.6884613 9.12548829-13.67227173-.01101685-8.15820313-6.62179565-14.76898193-14.77999878-14.77999878-5.98381042-.00404358-11.3804779 3.59794617-13.67225647 9.12548828-2.29177856 5.52755738-1.02703857 11.89141846 3.2041626 16.12261963 4.23120117 4.23120117 10.595047 5.49594116 16.12260437 3.2041626z"/>
      <path fill="rgb(251,169,25)" fill-rule="evenodd" d="M521.61999702 441.73999786C543.8900013 441.73999786 561.8900013 452 561.8900013 452c11.84636688 6.72026062 21.60547638 16.58317566 28.20000457 28.5 10.27999878 18.22999573 10.25999451 41.16999817 10.25999451 41.16999817-.02000427 22.94000244-10.2599945 41.18000793-10.2599945 41.18000793-6.5939026 11.91986847-16.3529358 21.78617096-28.20000458 28.50998688-17.9900055 10.26000977-40.27000428 10.25-40.27000428 10.25-22.27999877-.00997925-40.27999877-10.25-40.27999877-10.25-11.84898568-6.72131348-21.6086216-16.58822632-28.19999886-28.50998688-10.26000023-18.26000976-10.26000023-41.18000793-10.26000023-41.18000793C442.87999916 498.75 453.1399994 480.5 453.1399994 480.5c6.59159088-11.9190216 16.35139465-21.7826538 28.19999886-28.5 18.01000213-10.26000214 40.27999877-10.26000214 40.27999877-10.26000214zm32.38000489 137.8300171c9.55967712-5.6177063 17.39954376-13.74460602 22.66999054-23.50000764v-.02001953c8.33000183-15.09999084 8.33000183-34.3999939 8.33000183-34.3999939 0-19.29998779-8.36999512-34.38000488-8.36999512-34.38000488-5.25636291-9.76031494-13.0819931-17.89718628-22.62999725-23.52999878-20.1487732-11.26605224-44.70123291-11.26605224-64.8500061 0-9.54750825 5.63021851-17.3705349 13.7679596-22.61999703 23.52999878-8.29000092 15.07000733-8.29999924 34.38000489-8.29999924 34.38000489-.01000213 19.30999756 8.29999924 34.3999939 8.29999924 34.3999939 5.25009918 9.75897216 13.07319069 17.89334869 22.61999702 23.52002715 20.15231324 11.25247193 44.69769287 11.25247193 64.8500061 0z"/>
      <path fill="rgb(251,169,25)" fill-rule="evenodd" d="M929.65 442.92c-2.76224295.00140158-5.26537272 1.62706489-6.39 4.15L862.07 583.8 801 447.23c-1.65685425-3.66440932-5.97059068-5.29185425-9.635-3.635-3.66440932 1.65685425-5.29185425 5.97059068-3.635 9.635l66.24 146.58-8.44 19s-6.93 15.38-15.08 21.72c-5.62282598 4.27858029-12.53675142 6.511496-19.6 6.33-8.55726508.13834957-16.92413246-2.5311799-23.82-7.6-3.00995189-2.29198163-7.30801822-1.70995178-9.5999999 1.30000007-2.29198169 3.00995185-1.70995191 7.30801819 1.2999999 9.59999992 3.48447992 2.66948768 7.34236697 4.8123839 11.45 6.36000001 6.50667718 2.43334407 13.4033589 3.65678491 20.35 3.61 0 0 16.29 0 28.22-8.74 0 0 11.93-8.74 20.95-29.57l76.38-169c.99072058-2.17629434.80200308-4.70774358-.50045494-6.7130833-1.30245802-2.00533973-3.53844135-3.20710016-5.92954506-3.1869167z"/>
      <path fill="rgb(251,169,25)" fill-rule="evenodd" d="M741 452c11.83343506 6.7148285 21.57931519 16.5714569 28.16000366 28.48001099 10.30001831 18.22998047 10.30001831 41.1699829 10.30001831 41.1699829 0 22.94000245-10.26000976 41.18000031-10.26000976 41.18000031C762.61157227 574.75397491 752.8512268 584.62162018 741 591.34000397c-17.97998047 10.27001953-40.30999756 10.26000976-40.30999756 10.26000976-22.32998657-.01000976-40.26998901-10.25-40.26998901-10.25-11.85203552-6.72070312-21.61506653-16.58755493-28.21000672-28.51000976-10.25-18.23999787-10.25-41.1800003-10.25-41.1800003 0-.70999146.05999756-1.3999939.05999756-2.10000611v-92c0-4.23049927 3.4295044-7.65999603 7.66000366-7.65999603 4.23049927 0 7.66000367 3.42949676 7.66000367 7.65999603v45C643.48631287 464.14570618 651.3541565 457.13690948 660.42001343 452c17.95999145-10.27999878 40.26998901-10.27999878 40.26998901-10.27999878C723 441.72000122 741 452 741 452zm-7.89001465 127.57001495c9.55291748-5.62542724 17.38278198-13.75964355 22.64001465-23.52001953C764 540.94999695 764 521.6499939 764 521.6499939c0-19.2999878-8.25-34.38998413-8.25-34.38998413-5.25701904-9.76313782-13.08673096-17.90065003-22.64001465-23.53001404-20.1451416-11.26621247-44.69482422-11.26621247-64.83999634 0-9.55245971 5.62716675-17.37945556 13.7654419-22.62998962 23.53001404-8.29000855 15.06999206-8.30000305 34.37998962-8.30000305 34.37998962-.0099945 19.30999756 8.30000305 34.40001678 8.30000305 34.40001678 5.25074768 9.76177979 13.07789612 17.89675904 22.62998962 23.51998902 14.30999756 8.44000244 32.42001343 8.44000244 32.42001343 8.44000244 18.10998535 0 32.41998291-8.42999268 32.41998291-8.42999268z"/>
    </g>
  </g>
</svg>
