<svg xmlns="http://www.w3.org/2000/svg" width="9" height="21.75" viewBox="0 0 9 21.75">
  <g>
    <path fill="rgb(255,174,59)" fill-rule="evenodd" d="M6 21.75H3c-.82842712 0-1.5-.67157288-1.5-1.5V15C.67157288 15 0 14.32842712 0 13.5V9c0-1.24264069 1.00735931-2.25 2.25-2.25h4.5C7.99264069 6.75 9 7.75735931 9 9v4.5c0 .82842712-.67157288 1.5-1.5 1.5v5.25c0 .82842712-.67157288 1.5-1.5 1.5z"/>
    <path fill="rgb(255,174,59)" fill-rule="evenodd" d="M4.5 6c-1.65685425 0-3-1.34314575-3-3s1.34314575-3 3-3 3 1.34314575 3 3-1.34314575 3-3 3z"/>
  </g>
</svg>
