<svg xmlns="http://www.w3.org/2000/svg" xmlns:xlink="http://www.w3.org/1999/xlink" width="142.897" height="84.474" viewBox="0 0 142.897 84.474">
  <defs>
    <filter id="Rectángulo_12" x="98.103" y="39.884" width="35.595" height="35.595" filterUnits="userSpaceOnUse">
      <feOffset dy="3" input="SourceAlpha"/>
      <feGaussianBlur stdDeviation="3" result="blur"/>
      <feFlood flood-opacity="0.161"/>
      <feComposite operator="in" in2="blur"/>
      <feComposite in="SourceGraphic"/>
    </filter>
    <filter id="Trazado_49" x="102.171" y="43.745" width="40.726" height="40.728" filterUnits="userSpaceOnUse">
      <feOffset dy="3" input="SourceAlpha"/>
      <feGaussianBlur stdDeviation="3" result="blur-2"/>
      <feFlood flood-opacity="0.161"/>
      <feComposite operator="in" in2="blur-2"/>
      <feComposite in="SourceGraphic"/>
    </filter>
    <filter id="Trazado_50" x="58.421" y="0" width="68.501" height="68.501" filterUnits="userSpaceOnUse">
      <feOffset dy="3" input="SourceAlpha"/>
      <feGaussianBlur stdDeviation="3" result="blur-3"/>
      <feFlood flood-opacity="0.161"/>
      <feComposite operator="in" in2="blur-3"/>
      <feComposite in="SourceGraphic"/>
    </filter>
  </defs>
  <g id="search_vehiculo.illustration" data-name="search vehiculo.illustration" transform="translate(78.575 6)">
    <g id="Vehiculo" transform="translate(-78.575 14.239)">
      <path id="Trazado_109" data-name="Trazado 109" d="M28.52,27.446A11.535,11.535,0,1,1,16.985,15.911,11.549,11.549,0,0,1,28.52,27.446Zm-2.235,0a9.3,9.3,0,1,0-9.3,9.3,9.307,9.307,0,0,0,9.3-9.3Z" transform="translate(94.717 20.467)" fill="#fba919" fill-rule="evenodd"/>
      <path id="Trazado_110" data-name="Trazado 110" d="M20.573,24.584a6.449,6.449,0,1,1-6.449-6.449,6.459,6.459,0,0,1,6.449,6.449Zm-2.235.011a4.214,4.214,0,1,0-4.214,4.214A4.217,4.217,0,0,0,18.337,24.6Z" transform="translate(97.579 23.329)" fill="#ffd489" fill-rule="evenodd"/>
      <path id="Trazado_111" data-name="Trazado 111" d="M69.267,27.446A11.535,11.535,0,1,1,57.733,15.911,11.549,11.549,0,0,1,69.267,27.446Zm-2.235,0a9.3,9.3,0,1,0-9.3,9.3,9.307,9.307,0,0,0,9.3-9.3Z" transform="translate(-39.204 20.467)" fill="#fba919" fill-rule="evenodd"/>
      <path id="Trazado_112" data-name="Trazado 112" d="M61.32,24.584a6.449,6.449,0,1,1-6.449-6.449A6.459,6.459,0,0,1,61.32,24.584Zm-2.235.011a4.214,4.214,0,1,0-4.214,4.214A4.217,4.217,0,0,0,59.085,24.6Z" transform="translate(-36.342 23.329)" fill="#ffd489" fill-rule="evenodd"/>
      <path id="Trazado_113" data-name="Trazado 113" d="M34.025,15.3h1.811c2.224,0,3.968-1.352,3.968-3.063H37.568c0,.291-.659.827-1.732.827H34.025c-1.073,0-1.732-.537-1.732-.827H30.057c0,1.71,1.744,3.063,3.968,3.063Z" transform="translate(27.168 15.738)" fill="#ffd489" fill-rule="evenodd"/>
      <path id="Trazado_114" data-name="Trazado 114" d="M60.535,20.59l1.453,1.844L13.926,21.82V2.505l1.1-.022C16.274,2.438,45.9,2.014,60.535,20.59Zm-3.32-.447C44.407,6.116,21.426,4.83,16.162,4.718v14.9l41.054.525Z" transform="translate(41.867 3.18)" fill="#ffd489" fill-rule="evenodd"/>
      <path id="Trazado_115" data-name="Trazado 115" d="M69.7,2.7l-.112,19.225-32.123-.7-.313-.559a6.6,6.6,0,0,1,1.867-8.137c.648-.559,1.375-1.263,2.135-2.012C44.681,7.068,49.532,2.351,56.1,2.351c7.466,0,12.485.291,12.53.291L69.7,2.7ZM67.371,19.642l.078-14.821c-1.833-.089-5.935-.235-11.334-.224-5.667,0-9.959,4.169-13.4,7.522-.782.76-1.531,1.487-2.224,2.09a4.378,4.378,0,0,0-1.6,4.806l28.48.626Z" transform="translate(-17.367 3.021)" fill="#ffd489" fill-rule="evenodd"/>
      <path id="Trazado_116" data-name="Trazado 116" d="M54.247,24.828c6.684-1.1,10.663-8.3,10.35-12.6a5.9,5.9,0,0,0-4.739-5.589l-.358,2.2.179-1.107-.19,1.107a3.645,3.645,0,0,1,2.884,3.543c.246,3.443-3.286,9.378-8.484,10.227l.358,2.213Z" transform="translate(-52.137 8.543)" fill="#ffd489" fill-rule="evenodd"/>
      <path id="Trazado_117" data-name="Trazado 117" d="M16.569,23.247c.246,0,.447-.011.6-.022l-.145-2.235c-.894.056-5.566.112-10.764-4.3-4.024-3.42-3.051-6.8-3.007-6.941L1.133,9.063c-.067.2-1.531,4.907,3.688,9.333,5.086,4.314,9.758,4.851,11.747,4.851Z" transform="translate(116.482 11.656)" fill="#ffd489" fill-rule="evenodd"/>
      <rect id="Rectángulo_11" data-name="Rectángulo 11" width="58.411" height="2.236" transform="translate(39.219 44.56)" fill="#ffd489"/>
      <path id="Trazado_118" data-name="Trazado 118" d="M135.7,38.269c0,12.764-6.338,14.665-10.1,14.665l-1.185.022.067-1.174c.011-.089.4-8.405-4.158-13.223a11.642,11.642,0,0,0-8.852-3.443,12.008,12.008,0,0,0-8.987,3.454c-4.577,4.709-4.454,12.742-4.449,13.068v.01l.034,1.151H32.612l-.034-1.084c-.022-.682-.715-16.475-14.005-16.475-4.08,0-7.209,1.151-9.3,3.409-3.3,3.575-3.026,8.862-3.008,9.2v.017l.1,1.207H1.137l-.212-.849v0C.818,47.763-4.808,23.194,13.019,9,30.913-5.255,71.14.1,86.788,6.849c2.615,1.118,5.387,2.537,8.327,4.024,6.505,3.308,13.882,7.053,20.969,8.316C128,21.313,135.7,28.8,135.7,38.269ZM85.916,8.895C77.668,5.34,62.455,2.155,47.5,2.155c-12.686,0-25.182,2.291-33.1,8.6C-.539,22.654,2.132,42.5,2.925,46.853h1.1a15.125,15.125,0,0,1,3.6-9.7C10.157,34.4,13.835,33,18.574,33,31.83,33,34.289,46.573,34.725,50.552H95.808c.1-2.638.816-9.165,5.052-13.547a14.177,14.177,0,0,1,10.607-4.147,13.811,13.811,0,0,1,10.484,4.147c4.124,4.37,4.717,10.9,4.773,13.625,4.471-.57,6.74-4.728,6.74-12.362,0-8.338-6.975-14.966-17.772-16.889-7.411-1.319-14.944-5.142-21.583-8.517C91.2,11.387,88.465,9.99,85.916,8.895Z" transform="translate(0 -0.002)" fill="#fba919" fill-rule="evenodd"/>
    </g>
    <g id="Lupa" transform="translate(-11.154)">
      <g transform="matrix(1, 0, 0, 1, -67.42, -6)" filter="url(#Rectángulo_12)">
        <rect id="Rectángulo_12-2" data-name="Rectángulo 12" width="3.432" height="21.451" transform="translate(107.1 48.31) rotate(-45)" fill="#303030"/>
      </g>
      <g transform="matrix(1, 0, 0, 1, -67.42, -6)" filter="url(#Trazado_49)">
        <path id="Trazado_49-2" data-name="Trazado 49" d="M23.972,23.975a3.885,3.885,0,0,1,5.5,0L44.425,38.93a3.885,3.885,0,0,1-5.492,5.5L23.978,29.472a3.885,3.885,0,0,1,0-5.5Z" transform="translate(88.33 26.91)" fill-rule="evenodd"/>
      </g>
      <circle id="Elipse_22" data-name="Elipse 22" cx="22.309" cy="22.309" r="22.309" transform="translate(3.003 2.776)" fill="#fff4e0" opacity="0.72"/>
      <g transform="matrix(1, 0, 0, 1, -67.42, -6)" filter="url(#Trazado_50)">
        <path id="Trazado_50-2" data-name="Trazado 50" d="M25.25,46.616A21.366,21.366,0,1,0,3.885,25.25,21.366,21.366,0,0,0,25.25,46.616ZM50.5,25.25A25.25,25.25,0,1,1,25.25,0,25.25,25.25,0,0,1,50.5,25.25Z" transform="translate(67.42 6)" fill="#4a4949" fill-rule="evenodd"/>
      </g>
    </g>
  </g>
</svg>
